<svg width="1280" height="720" viewBox="0 0 1280 720" fill="none" xmlns="http://www.w3.org/2000/svg">
<g clip-path="url(#clip0_327_1017)">
<rect width="1280" height="720" fill="white"/>
<g clip-path="url(#clip1_327_1017)">
<path d="M887.475 32.3368C888.196 33.4763 889.116 34.7542 889.493 35.1046C890.499 36.039 891.192 37.7629 891.385 39.7731C891.517 40.7404 891.756 41.9953 891.996 42.5939C893.045 45.4468 893.329 50.6863 892.482 52.1523C892.3 52.4994 891.491 53.6723 890.703 54.7714C889.939 55.8453 888.977 57.4858 888.596 58.3994C887.967 59.8329 887.758 60.1081 886.824 60.5079C886.225 60.7492 885.115 61.6417 884.317 62.4496C883.03 63.8349 882.839 63.9393 881.904 63.6342C881.02 63.3758 880.804 63.4569 879.681 64.6659C879.002 65.3963 878.009 66.8678 877.512 67.9074C877.016 68.9956 876.103 70.6827 875.46 71.7278C874.381 73.4942 874.264 73.6202 873.294 73.7053C871.477 73.8466 870.548 74.392 869.005 76.103C867.906 77.3353 867.149 77.8986 866.188 78.2265C862.56 79.4083 859.615 80.6615 859.34 81.1094C859.133 81.4332 859.304 82.156 859.695 82.8947C860.084 83.585 860.435 84.5683 860.477 85.0771C860.52 85.586 860.952 87.4899 861.455 89.3182C861.957 91.1466 863.09 95.6735 864.023 99.3572C865.014 103.282 866.082 106.669 866.597 107.476C867.704 109.208 868.081 110.264 868.241 112.008C868.453 114.552 870.264 120.366 871.51 122.604C872.161 123.819 872.917 125.273 873.134 125.897C873.376 126.544 874.343 127.771 875.802 129.175C877.515 130.86 878.125 131.615 878.148 132.246C878.188 132.707 878.326 133.163 878.427 133.257C878.552 133.374 878.823 134.846 879.103 136.561C879.648 140.26 879.575 144.37 878.932 145.415C878.631 145.84 877.923 147.106 877.258 148.225C876.366 149.79 875.854 150.441 875.138 150.808C874.589 151.096 873.673 151.981 873.046 152.807C871.954 154.234 871.859 154.286 870.16 154.35C869.166 154.412 868.188 154.254 867.987 154.067C867.786 153.88 866.895 153.428 865.984 153.097C863.174 151.988 860.627 150.091 858.889 147.677C858.045 146.518 857.276 145.38 857.218 145.139C857.136 144.875 855.465 142.993 853.474 141.002C850.826 138.307 849.328 136.492 847.787 134.168C846.246 131.844 845.155 130.548 843.55 129.15C841.592 127.425 841.388 127.141 841.095 125.742C840.915 124.777 840.237 123.49 839.369 122.307C837.967 120.488 832.099 109.917 831.35 108.001C830.786 106.491 830.29 106.218 828.276 106.318C826.944 106.441 825.67 106.854 823.788 107.921C820.188 109.88 814.009 112.446 808.768 114.053C806.388 114.799 804.253 115.584 804.042 115.811C803.551 116.34 805.171 118.175 812.83 125.761C816.558 129.461 818.858 131.927 819.148 132.572C819.648 133.647 819.724 133.717 825.086 135.509C827.718 136.406 827.867 136.498 831.261 139.651C833.146 141.403 834.813 143.188 834.973 143.57C835.084 143.955 835.577 144.836 836.038 145.499C836.524 146.186 837.656 147.942 838.585 149.462C840.47 152.576 841.305 153.492 842.151 153.387C843.142 153.228 851.773 160.827 854.169 163.945C857.404 168.126 859.236 170.439 860.782 172.204C861.593 173.145 862.386 174.258 862.524 174.714C862.662 175.171 863.047 175.764 863.374 176.068C863.701 176.372 864.643 177.576 865.486 178.735C869.044 183.778 869.912 184.961 871.205 186.443C872.8 188.255 873.28 189.452 873.573 192.212C873.686 193.35 874.006 194.821 874.296 195.466C875.167 197.402 883.206 209.52 884.311 210.548C884.688 210.898 885.123 211.489 885.309 211.944C885.519 212.374 886.866 214.049 888.31 215.672C889.776 217.269 891.955 219.764 893.172 221.176C895.227 223.602 895.451 223.764 896.375 223.778C896.911 223.806 898.061 224.03 898.922 224.314C900.029 224.685 900.66 224.662 901.326 224.248C902.134 223.731 902.33 223.772 903.481 224.701C904.757 225.747 904.754 225.65 904.575 228.816L904.481 230.278L906.621 231C907.802 231.393 909.294 231.653 909.923 231.58C911.011 231.418 911.086 231.488 911.586 232.563C912.038 233.64 912.871 234.508 914.719 235.896C915.468 236.452 915.473 236.597 914.94 237.322C914.221 238.297 913.611 238.247 912.33 237.056C911.576 236.355 911.207 236.247 910.489 236.566C909.867 236.833 909.537 237.137 909.456 237.577C909.293 238.458 910.279 240.22 911.715 241.649C912.394 242.279 913.085 243.25 913.249 243.778C913.414 244.307 914.178 245.299 914.934 246.048C916.09 247.123 916.323 247.527 916.227 248.236C916.064 249.117 916.114 249.164 919.008 251.242C922.748 253.921 931.458 261.687 932.761 263.461C934.577 265.993 935.721 268.089 935.643 268.627C935.46 269.63 934.464 270.348 932.353 271.108C931.225 271.515 929.906 272.027 929.429 272.288C928.927 272.526 928.032 272.632 927.421 272.534C926.026 272.27 925.568 272.36 924.959 273.015C924.397 273.62 923.711 273.451 922.63 272.447C921.7 271.582 919.243 270.849 918.502 271.192C918.216 271.349 917.766 271.682 917.532 271.934C917.298 272.186 916.478 272.363 915.723 272.318C914.457 272.268 914.333 272.2 914.158 271.38C913.955 270.44 913.018 269.382 912.211 269.242C911.966 269.202 911.342 269.42 910.867 269.73C910.369 270.065 909.748 270.38 909.457 270.391C908.708 270.54 906.87 268.738 906.361 267.42C905.985 266.414 905.835 266.274 904.627 265.809C903.79 265.5 901.895 264.161 899.316 262.047C896.662 259.862 894.717 258.477 893.483 257.94C891.482 257.019 885.007 255.367 882.447 255.147C881.568 255.034 880.398 254.932 879.86 254.856C879.152 254.761 878.504 255.004 877.583 255.743C876.899 256.328 876.066 256.821 875.751 256.858C874.881 256.988 874.046 256.071 873.579 254.557C873.25 253.5 872.995 253.17 872.28 252.88C871.466 252.547 871.322 252.601 870.7 253.572C869.918 254.817 869.336 254.839 868.054 253.647C867.476 253.11 867.159 252.393 867.047 251.303C866.891 249.656 866.432 249.042 865.079 248.582C862.964 247.884 862.067 242.497 863.08 236.82C863.427 234.936 863.759 234.024 864.461 233.268C866.451 231.127 866.272 228.849 863.814 224.639C862.132 221.762 851.304 210.478 848.468 208.641C847.399 207.976 845.657 206.826 844.584 206.064C843.464 205.305 841.233 204.076 839.626 203.334C836.908 202.076 836.235 201.591 831.87 197.769C827.706 194.134 826.747 193.149 824.605 190.313C823.229 188.517 822.023 186.74 821.887 186.332C821.753 185.972 821.342 185.356 820.94 184.982C820.586 184.606 820.123 183.895 819.959 183.366C819.794 182.838 819.432 182.219 819.179 181.937C818.902 181.68 818.488 180.967 818.296 180.366C817.783 178.903 817.288 177.974 814.692 174.012C813.356 171.972 812.389 170.088 812.186 169.148C811.664 166.786 810.341 165.79 804.115 162.962C799.225 160.764 797.227 159.94 795.283 159.26C794.913 159.104 793.707 158.687 792.625 158.339C791.567 157.966 790.163 157.46 789.499 157.217C787.258 156.402 767.514 150.68 762.02 149.283C758.977 148.474 756.261 147.969 756.022 148.075C755.759 148.206 753.713 150.106 751.507 152.328C749.278 154.576 747.229 156.427 746.938 156.438C746.625 156.523 745.83 156.018 745.075 155.317C743.316 153.682 740.756 152.101 739.906 152.109C739.349 152.154 739.056 152.822 738.125 156.697C736.378 163.617 734.923 167.804 733.341 170.464C731.895 172.877 731.895 172.877 732.022 177.125C732.144 181.229 732.124 181.351 731.02 182.438C730.41 183.044 728.513 184.379 726.775 185.393C725.037 186.406 722.852 187.849 721.93 188.589C721.009 189.329 719.796 190.079 719.244 190.27C718.283 190.598 718.078 190.97 716.05 195.47C713.958 200.192 710.348 206.647 707.78 210.317C705.883 213.013 704.852 214.778 703.094 218.636C702.214 220.541 701.035 222.919 700.463 223.937C699.892 224.955 698.776 227.063 697.932 228.626C695.61 233.04 694.724 234.094 691.665 236.227C688.652 238.309 686.353 239.271 683.571 239.643C682.532 239.803 681.591 240.009 681.498 240.11C681.053 240.588 678.338 240.788 676.891 240.429C673.164 239.5 670.021 238.597 669.82 238.41C669.694 238.294 669.078 238.049 668.463 237.854C666.471 237.175 664.345 236.186 662.903 235.268C662.107 234.763 661.193 234.336 660.876 234.324C660.535 234.288 658.338 232.669 655.834 230.576C650.849 226.413 649.539 225.806 647.578 226.706C645.857 227.5 645.116 227.188 642.175 224.455C640.718 223.1 637.534 220.376 635.079 218.329C632.626 216.331 626.303 210.736 621.076 205.926L611.503 197.123L611.252 195.528C611.099 194.634 610.701 193.701 610.374 193.398C609.746 192.814 603.715 189.978 599.844 188.447C598.49 187.939 594.827 186.084 591.703 184.354C585.182 180.735 583.949 180.247 583.27 180.977C582.99 181.279 582.482 181.371 582.013 181.17C580.756 180.659 569.022 181.489 563.951 182.409C561.368 182.92 556.484 183.639 553.073 184.083C549.66 184.479 546.762 184.977 546.598 185.153C546.176 185.607 540.731 185.569 540.228 185.102C540.027 184.915 539.31 184.577 538.622 184.36C537.418 183.992 537.416 183.943 537.469 182.678C537.468 181.973 537.744 180.869 538.038 180.25C538.357 179.654 538.724 178.352 538.884 177.374C539.158 175.517 539.462 175.189 541.344 174.778C542.646 174.486 543.177 173.712 543.972 170.79C544.636 168.261 544.87 168.01 546.245 168.395L547.373 168.693L549.55 166.351C551.236 164.537 551.859 163.614 552.255 162.433C552.98 160.291 553.825 159.433 555.024 159.655C555.683 159.751 556.62 159.449 557.763 158.774C558.715 158.203 561.191 156.749 563.264 155.577C565.336 154.405 568.619 152.386 570.541 151.074C572.437 149.738 574.717 148.243 575.574 147.724C577.073 146.817 577.165 146.668 577.757 144.871C578.481 142.681 579.026 142.296 580.818 142.787C582.168 143.149 582.38 142.971 582.559 141.166C582.628 140.386 582.844 139.6 583.031 139.398C583.688 138.741 585.089 138.494 586.366 138.884C587.03 139.077 588.123 139.061 588.698 138.844C591.098 137.976 591.995 137.918 593.308 138.622C594.621 139.326 597.316 141.971 601.017 146.256C606.443 152.565 610.299 156.431 617.328 162.729C623.731 168.491 625.131 169.605 627.637 171.042C631.706 173.368 637.415 176.046 640.095 176.893C643.61 178 648.724 180.359 651.336 182.035C655.268 184.61 665.093 192.99 666.801 195.235C669.401 198.637 669.604 198.872 670.038 198.759C670.277 198.653 670.519 197.939 670.562 197.086C670.629 196.257 670.778 194.283 670.965 192.72C671.104 191.159 671.318 188.964 671.398 187.818C671.481 186.721 671.709 185.619 671.943 185.367C672.177 185.115 672.365 184.257 672.385 183.43C672.493 180.339 673.914 176.543 678.647 166.812C681.139 161.711 682.656 158.567 682.885 158.17C682.998 157.947 682.881 157.368 682.667 156.841C680.983 153.21 680.591 151.766 680.076 147.532C679.24 141.122 679.718 134.056 681.728 121.559C683.241 112.169 684.507 108.135 687.318 103.8C694.043 93.3379 703.838 81.7395 709.686 77.363C713.64 74.4188 717.707 71.908 720.2 70.9391C721.446 70.4546 722.522 69.9523 722.639 69.8263C722.756 69.7004 722.958 68.5261 723.107 67.2566C723.425 63.8903 724.264 61.5253 725.622 60.0644C727.775 57.7472 733.018 54.8274 744.475 49.6077C746.435 48.7074 749.711 47.1986 751.719 46.248C753.776 45.2955 757.507 43.5994 760.018 42.4596C762.53 41.3199 765.969 39.6348 767.664 38.7688C769.334 37.8795 771.317 36.9055 772.009 36.5635C773.565 35.8972 773.65 35.5537 772.935 33.9035C772.487 32.9238 771.401 31.7737 767.182 27.9464C761.93 23.1128 760.506 22.024 759.23 21.6832C758.837 21.5521 757.795 20.9594 756.947 20.3594C756.074 19.736 754.49 18.9206 753.455 18.5221C750.869 17.5743 749.118 16.1818 748.58 14.6952C748.255 13.7837 747.774 13.2428 746.451 12.2475C745.528 11.5774 744.364 10.9649 743.923 10.8843C743.46 10.8288 742.842 10.5361 742.49 10.2091C741.585 9.36813 734.348 6.11626 731.399 5.20644C729.974 4.77398 727.758 3.98239 726.452 3.47254C725.121 2.93933 723.347 2.27693 722.487 1.99336C721.626 1.7098 719.845 0.853205 718.507 0.125804C717.192 -0.626785 715.71 -1.30015 715.173 -1.37714C714.66 -1.43077 713.868 -1.83844 713.416 -2.25892C712.435 -3.16995 708.25 -4.66517 705.439 -5.11835C704.364 -5.27233 703.335 -5.52522 703.184 -5.66538C703.033 -5.80554 701.752 -6.29203 700.352 -6.70113C698.95 -7.15878 697.132 -7.72226 696.345 -7.98429C693.121 -9.10251 691.197 -9.20022 687.847 -8.41778C686.04 -7.98512 683.971 -7.37249 683.255 -7.00523C682.537 -6.68653 681.436 -6.20756 680.814 -5.94105C680.215 -5.69974 679.643 -5.38652 679.526 -5.26058C678.847 -4.53013 675.181 -5.77754 669.513 -8.65099C667.435 -9.6908 664.021 -9.99977 661.589 -9.34915C659.879 -8.92015 659.295 -8.94676 658.156 -9.53583C656.027 -10.6224 655.674 -11.6542 656.808 -13.2768C657.431 -14.1996 657.973 -14.6819 658.764 -14.979C660.277 -15.4978 660.414 -15.746 660.308 -17.3463C660.25 -18.292 660.444 -19.0042 660.912 -19.508C661.31 -19.9362 661.64 -20.8965 661.726 -21.8963C661.791 -22.8224 662.143 -23.8565 662.47 -24.2091C662.798 -24.5618 663.238 -25.186 663.42 -25.5331C663.67 -26.0044 664.269 -26.2457 665.382 -26.3848C667.296 -26.5784 667.697 -26.9095 666.893 -27.657C666.566 -27.9607 666.159 -28.4801 666.003 -28.7659C665.685 -29.4831 666.182 -31.2276 667.025 -32.1344C667.938 -33.1167 669.081 -33.0868 673.351 -31.9351C673.867 -31.7844 675.309 -31.5713 676.504 -31.4461C680.137 -31.1211 687.206 -28.4949 688.965 -26.8597C689.619 -26.2524 694.138 -24.9156 695.647 -24.8751C696.522 -24.8595 703.533 -23.179 703.809 -22.9221C704.061 -22.6885 712.523 -21.2085 714.985 -20.9852C722.179 -20.3082 743.714 -13.4384 748.544 -10.2174C749.191 -9.80424 750.48 -9.07501 751.397 -8.59908L753.055 -7.76219L754.355 -9.46399C757.001 -12.9665 760.492 -13.9001 765.646 -12.49C767.07 -12.1061 769.044 -11.2568 770.037 -10.6622C771.007 -10.0425 773.289 -8.76724 775.121 -7.81538C776.93 -6.83834 780.553 -4.73861 783.14 -3.08596C785.775 -1.43514 789.445 0.61422 791.346 1.44197C794.73 2.99163 801.692 6.6914 805.69 9.09298C806.784 9.78098 810.074 12.0877 812.969 14.2149C817.312 17.4056 818.942 18.8269 822.193 22.083L826.126 26.0669L827.69 26.2997C829.132 26.5128 829.528 26.7409 831.812 28.7696C834.348 31.0318 834.348 31.0318 835.786 34.575C837.042 37.7604 837.377 38.3068 838.935 39.7551C839.891 40.6428 840.864 41.3596 841.108 41.399C841.353 41.4384 842.953 39.9684 844.759 38.126C848.627 34.1157 850.025 31.7539 849.02 30.8196C848.517 30.3524 848.534 30.133 849.119 29.5033C849.517 29.0751 849.922 28.8411 850.072 28.9812C850.475 29.355 851.798 28.2843 851.845 27.5776C851.877 27.0903 852.089 26.9122 852.812 26.7391C853.319 26.6471 853.963 26.3069 854.221 26.0298C854.478 25.7527 855.736 24.9033 856.998 24.1509C859.094 22.9539 859.671 22.7863 862.632 22.6748C864.452 22.5819 866.367 22.4369 866.872 22.2963C867.426 22.154 868.672 22.3258 869.68 22.6524C870.713 23.0024 873.312 23.6337 875.443 24.1125C877.598 24.5661 879.805 25.115 880.346 25.289C881.848 25.8401 885.952 29.8419 887.475 32.3368Z" fill="black"/>
<path d="M1002.81 218.336C1005.77 221.749 1007.12 224.979 1007.47 229.341C1008.26 238.329 1007.98 241.451 1006.09 245.8C1004.36 249.778 999.88 255.659 998.128 256.284C997.743 256.396 996.697 257.067 995.821 257.708C994.946 258.397 993.253 259.311 992.078 259.769C990.929 260.25 989.374 260.964 988.637 261.405C986.994 262.367 983.039 263.245 980.341 263.225C979.222 263.218 977.197 262.979 975.777 262.692C973.523 262.193 972.145 261.71 967.678 259.813C965.483 258.899 964.085 257.882 960.895 254.964C958.08 252.347 957.572 251.735 956.579 249.779C952.656 242.003 951.775 238.414 952.639 234.007C952.947 232.415 953.076 230.563 952.953 229.838C952.591 227.859 953.363 225.667 956.357 220.328C957.751 217.821 959.654 215.975 961.15 215.675C961.776 215.506 962.627 214.842 963.938 213.431C966.07 211.188 968.377 209.764 971.668 208.692C978.108 206.602 986.92 207 991.873 209.584C995.265 211.328 1000.19 215.299 1002.81 218.336Z" fill="black"/>
</g>
<g clip-path="url(#clip2_327_1017)">
<path d="M1255.57 219.156C1255.39 219.192 1254.13 219.097 1252.83 218.949C1245.87 218.05 1238.95 219.092 1232.96 221.907C1229.03 223.759 1227.41 224.985 1226.73 226.643C1226.28 227.749 1226.24 228.2 1226.63 229.111C1227.04 230.17 1227.01 230.355 1226.18 231.93C1225.69 232.849 1224.73 235.232 1224.01 237.235C1222.84 240.583 1222.75 241.006 1222.95 243.228L1223.14 245.583L1221.39 249.197L1219.65 252.811L1220.39 253.306C1221.5 254.061 1221.53 254.447 1220.8 256.715C1220.25 258.443 1220.2 258.986 1220.57 260.057C1220.92 261.048 1220.91 261.512 1220.5 262.274C1220.14 262.956 1220.04 263.778 1220.17 264.989C1220.28 265.921 1220.32 267.184 1220.24 267.78C1220.16 268.376 1220.07 269.171 1220.03 269.555C1219.97 269.926 1220.3 270.77 1220.72 271.363C1221.15 271.997 1221.41 272.601 1221.26 272.757C1221.08 272.899 1218.24 273.008 1214.92 273.001C1205.95 272.987 1205.63 273.02 1203.99 274.471C1201.7 276.519 1197.1 281.915 1193.82 286.398C1190.55 290.855 1190.07 291.442 1189.79 291.289C1189.68 291.234 1189.29 289.95 1188.91 288.441C1187.93 284.594 1185.98 279.928 1183.3 275.113C1179.88 268.967 1178.17 266.313 1177.23 265.814C1175.53 264.912 1167.27 265.38 1162.83 266.662C1160.47 267.327 1160.04 267.57 1158.41 269.127C1157.43 270.089 1156.57 270.946 1156.52 271.051C1156.46 271.156 1156.72 271.627 1157.08 272.086C1157.45 272.52 1157.89 273.592 1158.05 274.419C1158.28 275.646 1158.61 276.224 1159.77 277.446L1161.23 278.926L1163.48 279.109C1165.35 279.257 1165.93 279.163 1167.02 278.497C1168.6 277.549 1169.03 277.745 1171.53 280.616C1173 282.336 1173.39 283.008 1173.88 284.919C1174.25 286.189 1174.58 288.985 1174.63 291.231C1174.75 296.069 1175.07 299.835 1175.54 302.608C1175.76 303.728 1175.82 304.872 1175.7 305.108C1175.43 305.607 1168.04 307.847 1164.19 308.598C1161.13 309.194 1157.8 309.146 1155.38 308.535C1151.96 307.635 1144.47 303.364 1135.24 296.996C1133.49 295.802 1129.42 293.612 1121.01 289.361C1114.54 286.069 1106.67 282.003 1103.5 280.259L1097.76 277.116L1091.16 276.982C1087.54 276.915 1081.02 276.491 1076.72 276.063L1068.88 275.305L1054.6 276.382C1043.23 277.218 1037.38 277.885 1025.78 279.579C1015.39 281.101 1009.61 281.769 1005.53 281.931C1002.38 282.047 999.64 282.039 999.378 281.901C999.142 281.776 998.658 280.981 998.32 280.164C997.18 277.442 997.494 277.608 989.327 275.368C981.713 273.286 976.321 271.439 966.734 267.64C959.721 264.867 957.462 264.512 954.32 265.571C951.083 266.681 950.903 267.022 950.643 272.768L950.489 275.779L953.89 280.437C957.045 284.798 957.459 285.219 959.933 287.067C962.98 289.353 964.122 289.856 969.009 291.2C972.315 292.11 972.905 292.389 979.005 295.62C984.085 298.309 986.188 299.591 988.872 301.55C993.367 304.838 994.716 305.519 996.245 305.354C998.093 305.156 999.5 304.018 1002.51 300.366C1004.01 298.54 1005.4 296.99 1005.64 296.916C1005.84 296.854 1014.72 297.184 1025.3 297.646L1044.57 298.539L1047.55 299.88C1050.35 301.125 1050.97 301.285 1057.22 302.207C1063.52 303.158 1064.21 303.186 1069.48 302.786C1072.55 302.562 1075.38 302.279 1075.78 302.222C1076.17 302.124 1077.28 301.471 1078.3 300.763C1080.35 299.295 1080.93 299.202 1082.58 300.075C1085.62 301.683 1098.07 312.546 1098.47 313.937C1098.56 314.217 1097.34 318.613 1095.78 323.706C1094.2 328.784 1092.87 333.191 1092.82 333.469C1092.78 333.747 1093.42 334.996 1094.31 336.238L1095.91 338.531L1099.16 339.547C1100.98 340.105 1107.27 342.025 1113.13 343.815C1119.01 345.62 1124.26 347.224 1124.8 347.409C1125.75 347.775 1125.81 347.91 1126.88 352.343C1127.5 354.854 1128.1 357.391 1128.15 357.99L1128.31 359.082L1123.24 365.305C1118.41 371.188 1117.96 371.855 1114.51 377.663C1112.52 381.045 1109.35 386.394 1107.5 389.514C1105.56 392.725 1104.13 395.363 1104.19 395.563C1104.26 395.764 1106.33 398.945 1108.76 402.651C1111.22 406.346 1113.23 409.591 1113.21 409.817C1113.22 410.056 1110.19 415.142 1106.47 421.143C1101.39 429.344 1099.22 433.134 1097.58 436.472C1095.41 440.899 1095.39 440.926 1094.3 446.467L1093.2 452.034L1090.47 457.18C1088.95 460.002 1086.88 463.515 1085.88 464.967C1084.52 466.903 1082.9 469.842 1079.74 476.001C1075.79 483.763 1074.85 485.349 1067.54 497.074C1063.18 504.043 1059.56 509.86 1059.49 509.991C1059.42 510.123 1058.75 510.506 1058.01 510.822C1055.34 511.998 1054.28 513.382 1053.34 516.854C1052.99 518.281 1052.95 519.94 1053.19 523.466C1053.38 526.086 1053.52 530.26 1053.47 532.756L1053.37 537.31L1054.83 539.188C1055.62 540.215 1057 542.052 1057.91 543.241L1059.55 545.456L1063.12 546.306C1068.5 547.608 1070.94 547.25 1072.16 544.94C1072.75 543.837 1073.73 539.755 1073.73 538.44C1073.74 537.975 1073.5 536.336 1073.18 534.788C1072.89 533.254 1072.75 531.232 1072.85 530.278C1072.98 529.338 1072.85 526.984 1072.56 525.078C1072.03 521.441 1071.69 516.08 1071.87 514.092C1072.05 512.303 1076.28 506.141 1080.17 502.017C1083.29 498.726 1086.71 494.685 1087.25 493.661C1087.64 492.926 1095.8 484.979 1099.34 481.909C1100.79 480.627 1103.59 477.807 1105.53 475.605L1109.11 471.62L1111.03 466.921C1114.34 458.76 1115.41 456.367 1118.7 449.466L1121.88 442.75L1133.86 428.419C1150.09 409.043 1152.58 405.858 1161.62 392.79C1163.83 389.558 1166.51 386.072 1168.67 383.583L1172.15 379.609L1175.06 378.797C1177.78 378.021 1178.07 377.868 1180.09 376.013C1183.24 373.042 1189.33 369.95 1210.41 360.537C1230.45 351.618 1230.56 351.541 1241.43 343.681C1248.22 338.771 1252.76 335.06 1256.76 331.125C1262.86 325.177 1262.57 325.529 1264.17 322.005C1266.7 316.523 1267.39 312.886 1266.86 307.495C1266.65 305.099 1266.11 303.4 1263.36 296.127C1260.19 287.795 1260.07 287.526 1258.39 285.762C1257.03 284.338 1256.59 283.637 1256.28 282.395C1255.75 280.364 1255.36 275.72 1255.43 272.6C1255.5 268.87 1256.59 266.623 1261.85 259.089L1265.96 253.23L1267.55 247.82C1268.46 244.838 1269.22 241.946 1269.26 241.429C1269.35 240.435 1266.96 229.69 1266.52 228.989C1266.37 228.773 1264.14 226.652 1261.55 224.27C1258.95 221.888 1256.65 219.724 1256.4 219.493C1256.15 219.262 1255.8 219.108 1255.57 219.156Z" fill="black"/>
<path d="M988.263 210.461C986.003 209.6 981.872 208.791 979.473 208.764C971.918 208.596 964.335 211.775 959.322 217.189C954.366 222.497 954.004 223.18 952.399 230.264C950.75 237.492 952.125 244.709 956.384 251.099C961.154 258.298 969.36 262.744 978.121 262.912C990.395 263.159 1001.23 255.112 1004.7 243.168C1008.61 229.84 1001.36 215.48 988.263 210.461Z" fill="black"/>
</g>
<g clip-path="url(#clip3_327_1017)">
<path d="M220.803 563.32C220.696 563.457 219.274 563.994 217.645 564.513C204.828 568.767 195.71 579.71 193.719 593.139C192.98 598.149 194.031 606.178 196.021 610.913C196.862 612.844 198.536 615.919 199.77 617.68C200.967 619.486 201.852 621.08 201.703 621.221C201.56 621.404 200.545 621.893 199.435 622.27C196.827 623.233 195.891 624.045 195.141 626.118C194.32 628.281 194.403 628.644 196.103 632.296C198.031 636.5 199.766 638.327 201.778 638.26C203.007 638.201 203.533 638.471 204.437 639.525C205.533 640.805 205.66 640.832 208.059 640.555C210.498 640.273 210.584 640.304 210.834 641.392C210.99 642.036 211.386 642.611 211.681 642.66C212.02 642.745 213.979 642.229 216.078 641.49C219.123 640.393 220.69 640.046 224.287 639.796C229.886 639.397 231.217 639.864 232.669 642.799C233.646 644.838 233.687 644.833 235.394 644.636C236.696 644.485 237.501 644.682 238.789 645.485C240.299 646.427 240.76 646.498 243.403 646.193C247.672 645.699 251.109 644.06 253.442 641.432C256.031 638.526 257.848 637.489 261.263 637.094C265.939 636.553 269.107 637.222 277.581 640.669C286.536 644.351 314.716 652.886 322.593 654.376C324.195 654.687 330.16 655.321 335.858 655.78C341.56 656.279 347.368 656.973 348.816 657.385C350.224 657.802 354.084 659.466 357.36 661.073C360.64 662.722 369.828 666.997 377.829 670.624C385.87 674.246 393.383 677.929 394.684 678.854C396.708 680.317 397.19 680.923 397.864 682.831C398.895 685.691 399.552 686.029 407.595 688.244C410.954 689.138 416.114 690.652 419.147 691.584C425.426 693.506 425.03 692.931 424.494 699.696C423.977 705.921 422.24 712.991 419.416 720.641C417.538 725.782 416.674 727.578 415.903 728.039C415.327 728.396 413.158 729.598 411.062 730.709C405.481 733.754 399.975 737.453 395.667 741.178C393.529 742.998 390.661 745.274 389.205 746.228C387.791 747.178 384.622 750.068 382.198 752.624C379.774 755.18 376.908 757.828 375.836 758.532C374.002 759.778 373.636 759.82 367.609 760.434C360.561 761.125 360.917 761.001 346.449 767.721C322.993 778.667 316.423 783.853 317.194 790.881C317.633 794.678 321.153 798.037 325.169 798.566C328.679 798.987 335.362 797.636 342.488 795.116C345.89 793.895 349.718 792.79 351.019 792.64C353.255 792.381 353.427 792.444 355.297 794.007C356.35 794.92 357.502 795.614 357.868 795.572C359.169 795.422 360.207 793.357 361.055 789.287C361.532 786.997 362.321 784.548 362.81 783.788C364.6 781.098 364.997 780.969 378.052 779.129C396.785 776.509 400.287 775.442 407.187 770.258C409.425 768.593 417.434 765.516 420.524 765.158C422.801 764.895 422.927 764.922 423.901 766.216C425.412 768.234 426.175 768.064 441.402 762.207C445.305 760.68 450.585 758.953 453.104 758.289C457.511 757.2 464.97 754.724 477.989 750.075C481.31 748.863 487.1 746.911 490.827 745.653C494.56 744.435 498.192 743.064 498.922 742.607C499.611 742.155 501.33 740.632 502.684 739.152C506.835 734.783 507.704 734.103 510.226 733.108C518.28 730.067 554.184 710.607 585.064 692.597L597.068 685.582L601.263 686.587C610.499 688.788 621.826 689.465 631.67 688.368L638.384 687.633L641.816 688.809C643.704 689.46 649.275 691.671 654.207 693.707L663.167 697.43L668.982 705.323C683.374 724.678 690.667 736.083 693.757 743.918C695.743 748.985 698.913 763.928 700.053 773.437C700.7 779.031 700.855 779.303 702.497 777.83C703.92 776.59 704.629 773.818 704.566 770.06C704.471 766.389 705.016 765.043 706.5 765.41C707.985 765.776 711.932 767.844 717.585 771.121C725.006 775.435 728.222 776.884 728.711 776.124C729.164 775.41 728.3 774.351 723.286 769.469C721.106 767.362 719.279 765.463 719.261 765.3C719.161 764.442 720.669 765.013 723.572 766.953C727.363 769.453 733.368 772.565 735.586 773.219C737.292 773.725 738.733 773.352 738.629 772.454C738.596 772.168 738.102 771.108 737.532 770.098C736.962 769.088 736.436 767.742 736.36 767.089C736.03 764.23 731.804 759.754 724.474 754.436C713.056 746.198 711.655 744.415 703.534 727.272C695.568 710.401 692.588 704.58 689.399 699.446C685.408 693.08 683.749 691.203 676.799 685.262C671.311 680.558 665.476 676.061 642.673 658.794C638.113 655.349 633.239 651.32 631.871 649.823C630.462 648.331 626.364 644.956 622.63 642.243C618.902 639.571 615.871 637.232 615.852 637.069C615.828 636.865 612.539 634.431 608.547 631.624C597.072 623.599 591.58 618.151 587.39 610.774L585.156 606.771L586.246 603.376C588.652 596.022 590.661 589.17 591.321 586.321C592.368 581.483 592.121 578.988 589.451 569.076C586.56 558.322 586.426 557.882 584.471 555.584C582.512 553.245 579.711 551.831 575.322 550.931C570.802 549.964 566.868 548.723 566.077 547.945C565.478 547.394 565.361 547.449 564.353 548.351C563.354 549.336 563.151 549.359 558.87 549.399C552.818 549.437 549.448 549.868 544.744 551.239C540.957 552.339 540.672 552.371 539.124 551.806C538.223 551.496 537.462 551.336 537.431 551.422C537.4 551.508 537.146 552.158 536.901 552.89C536.267 554.536 534.394 556.159 531.76 557.25C530.19 557.928 529.546 558.416 529.387 559.179C528.983 560.674 530.147 563.974 531.858 566.3C532.646 567.409 533.371 568.69 533.422 569.14C533.474 569.589 532.964 571.592 532.287 573.574C530.932 577.537 530.523 580.771 531.262 582.175C531.842 583.266 531.483 584.797 529.218 591.224C528.255 593.942 527.567 596.546 527.66 596.99C527.802 597.512 528.464 597.89 529.776 598.194L531.682 598.636L532.162 601.725C532.489 603.838 532.825 604.958 533.269 605.238C534.158 605.797 534.273 607.149 533.617 608.963C533.055 610.517 533.2 616.045 533.855 617.79C534.098 618.465 534.733 618.971 535.715 619.272C537.417 619.737 541.308 619.535 543.411 618.837C545.713 618.074 545.917 619.127 543.981 621.626C542.224 623.898 534.762 631.34 525.767 639.786L519.859 645.351L511.492 648.18C500.905 651.763 496.7 652.456 491.907 651.272C488.224 650.415 485.107 649.12 480.353 646.484C478.417 645.425 476.075 644.413 475.153 644.271C474.23 644.13 470.691 644.166 467.292 644.352C460.618 644.71 457.244 644.397 453.219 643.083C449.584 641.931 447.585 641.748 441.936 642.07C435.962 642.429 431.72 642.092 422.098 640.474C418.022 639.786 413.407 639.078 411.861 638.885C408.731 638.543 395.368 638.433 387.034 638.692C380.955 638.857 379.277 638.596 369.726 635.811C366.317 634.839 362.71 633.932 361.66 633.764C360.616 633.636 355.499 631.787 350.272 629.701C339.946 625.557 336.501 624.632 327.538 623.723C318.696 622.8 304.249 621.864 297.233 621.764C293.314 621.721 289.651 621.399 287.75 620.998C285.166 620.387 283.471 620.335 277.416 620.704C268.007 621.295 256.833 621.221 255.437 620.555C255.22 620.456 255.748 619.319 256.622 617.976C263.372 607.928 264.716 595.318 260.165 584.465C256.356 575.389 249.484 568.694 240.476 565.267C237.07 563.964 234.876 563.514 228.48 562.723C226.558 562.49 221.127 562.911 220.803 563.32Z" fill="black"/>
</g>
<g clip-path="url(#clip4_327_1017)">
<path d="M183.825 175.013C183.125 175.98 177.863 177.991 175.453 178.195C173.516 178.345 173.012 178.773 173.135 180.161C173.352 182.351 172.189 183.777 169.933 184.038C168.222 184.235 167.787 184.618 167.56 186.158C167.462 186.907 166.937 188.112 166.39 188.803C165.847 189.53 165.48 190.495 165.539 191.005C165.593 191.479 165.221 192.407 164.711 193.094C163.588 194.552 163.28 196.987 163.722 200.812C163.991 203.143 163.937 203.629 163.321 204.364L162.605 205.185L163.692 207.57C164.289 208.903 164.817 210.282 164.863 210.682C164.909 211.083 164.368 212.142 163.656 213C162.429 214.507 162.377 214.698 162.621 216.81C162.76 218.012 162.749 219.195 162.629 219.43C162.3 220.096 160.683 221.095 157.675 222.513L154.946 223.788L153.571 223.061C150.429 221.394 145.645 221.799 140.756 224.173C139.218 224.904 136.039 226.748 133.675 228.313L129.355 231.138L127.545 230.794C126.529 230.616 124.168 229.966 122.251 229.339C119.071 228.304 118.545 228.217 115.67 228.549C112.9 228.833 112.225 229.058 109.449 230.56C104.873 233.082 101.43 233.923 96.934 233.631C92.9967 233.385 91.2626 233.696 87.7541 235.246C84.4233 236.738 83.1328 236.74 79.2833 235.339C73.3592 233.219 72.6103 233.121 65.608 234.115C53.3096 235.868 49.7308 236.171 48.3001 235.599C47.218 235.17 45.3733 235.162 38.522 235.548C27.788 236.161 21.6113 236.321 18.0785 236.065L15.2902 235.871L13.6055 237.247C8.30901 241.513 6.93339 242.373 4.93193 242.605C4.45885 242.66 4.09224 242.997 3.993 243.415C3.91059 243.978 3.32564 244.341 1.83093 244.809C-1.26345 245.794 -1.98133 246.283 -2.88357 248.048C-4.66009 251.502 -5.58489 252.753 -7.9665 254.8L-10.4083 256.964L-11.1616 260.337C-11.6104 262.197 -12.7012 265.202 -13.5628 267C-14.97 269.82 -15.2091 270.623 -15.2629 273.028C-15.3198 274.769 -15.5601 276.2 -15.9896 276.951C-16.3589 277.584 -16.7237 279.213 -16.8142 280.663L-16.9198 283.259L-14.8708 282.801C-12.5307 282.309 -10.9858 281.318 -8.07393 278.435C-6.25772 276.601 -5.77352 276.323 -4.28152 276.151C-3.18981 276.025 -2.20035 275.652 -1.56367 275.099C-0.991351 274.626 -0.0830968 274.189 0.462757 274.126C1.37251 274.021 1.59356 273.7 2.42694 271.02C3.71204 267.144 4.02962 266.701 5.95831 266.478C6.90446 266.368 7.99887 265.947 8.63976 265.43C9.24847 264.953 10.1931 264.512 10.7026 264.453C11.9399 264.31 12.6659 262.934 14.9552 256.579C15.9536 253.733 17.3593 250.58 18.0225 249.618L19.2607 247.888L20.6185 248.469C22.6413 249.379 30.2854 250.747 32.1049 250.537C33.3058 250.398 33.9861 250.541 34.7533 251.117C35.4393 251.628 36.4681 251.915 37.7222 251.918C40.53 251.962 42.3441 252.343 43.1239 253.028C43.5299 253.35 44.2914 253.557 44.8373 253.494C45.4923 253.419 46.0312 253.615 46.3365 254.022C46.8294 254.777 54.216 256.47 56.0719 256.256C56.8361 256.167 57.4478 256.355 57.8707 256.823C58.8508 257.965 62.1163 258.141 68.521 257.4C75.144 256.635 77.1834 256.731 81.0805 257.905C83.8675 258.727 84.09 258.738 89.2574 258.141C94.2429 257.565 94.6474 257.555 95.3503 258.212C95.8011 258.602 97.1773 259.661 98.4639 260.583L100.761 262.274L105.614 261.824C108.347 261.545 111.547 261.47 113.04 261.63C115.691 261.914 126.023 263.561 126.19 263.727C126.234 263.795 127.089 264.804 128.113 266.014C129.138 267.225 132.492 270.712 135.613 273.784C138.729 276.82 142.525 280.626 144.029 282.15L146.829 285L146.43 286.338C146.088 287.522 146.138 287.959 146.909 290.159C147.396 291.505 147.836 293.078 147.904 293.661C148.043 294.863 146.769 298.517 146.075 298.892C145.413 299.227 145.24 302.2 145.629 307.802C145.877 311.538 145.861 313.312 145.486 314.536C144.736 316.985 145.029 318.243 146.746 320.333C147.564 321.346 148.289 322.517 148.34 322.954C148.39 323.391 147.873 324.337 147.124 325.198C145.297 327.255 145.623 328.805 148.303 330.931C149.846 332.155 149.858 332.264 149.462 334.894C149.399 335.307 148.601 336.064 147.674 336.651C145.434 338.017 144.654 338.919 144.784 340.049C144.843 340.558 144.624 341.211 144.326 341.504C143.757 342.013 143.77 342.122 144.752 343.596C146.471 346.35 146.227 346.784 142.757 347.074C138.737 347.391 137.769 347.946 134.728 351.952C133.22 353.898 131.603 355.856 131.058 356.252C129.817 357.318 130.035 358.88 131.756 361.006C132.488 361.918 133.222 363.162 133.402 363.769C133.707 364.804 133.651 364.958 132.58 365.266C131.978 365.484 130.493 366.356 129.267 367.236C127.09 368.817 127.09 368.817 127.275 370.419C127.381 371.33 127.955 373.109 128.58 374.366L129.654 376.641L128.812 377.329C127.195 378.66 125.572 381.21 125.068 383.224C124.496 385.616 123.178 395.586 123.304 396.679C123.355 397.116 123.835 397.762 124.354 398.108C124.996 398.55 125.644 399.693 126.43 401.706C128.857 408.033 128.678 407.758 130.977 408.821C133.466 409.936 134.125 410.856 134.499 413.766C134.671 415.259 134.937 415.967 135.461 416.349C136.549 417.146 145.736 420.698 147.813 421.122C149.967 421.575 153.842 421.274 155.303 420.515C156.764 419.756 156.881 419.816 157.741 421.193C158.842 423.059 159.525 429.291 159.023 432.598C158.81 433.951 158.709 435.624 158.829 436.348C158.992 437.436 158.76 437.98 157.605 439.479C156.35 441.064 156.071 441.834 155.348 445.793C154.858 448.249 154.247 450.94 153.939 451.788C153.627 452.599 153.011 454.922 152.579 456.928C152.147 458.934 151.181 462.7 150.416 465.335C149.628 468.084 149.07 470.917 149.087 472.022C149.099 473.719 148.959 474.104 148.044 474.8C146.524 476.009 145.649 477.365 145.541 478.67C145.441 479.715 145.239 479.886 143.914 480.224C142.661 480.553 142.125 481.021 140.304 483.446C138.192 486.237 137.579 486.677 135.658 486.641C135.326 486.642 135.256 487.314 135.45 488.99C135.597 490.265 135.616 492.662 135.506 494.262C135.251 497.798 135.382 498.927 136.256 500.745C136.831 501.897 136.869 502.224 136.487 502.748C136.266 503.069 135.409 504.903 134.564 506.846C133.027 510.457 131.331 513.015 129.863 514.033C129.383 514.347 128.083 514.904 126.948 515.293C125.845 515.642 123.399 516.811 121.531 517.876C118.621 519.504 117.81 519.819 115.303 520.146L112.469 520.51L110.933 524.453C110.081 526.655 109.448 528.832 109.503 529.306C109.587 530.034 109.229 530.445 107.684 531.435C104.594 533.416 102.823 536.279 100.105 543.716C97.556 550.692 96.132 553.366 94.0162 555.161C93.2746 555.764 92.7681 556.487 92.9026 556.692C93.0048 556.939 93.3005 557.901 93.5597 558.868L94.0207 560.623L92.9483 559.64C91.9528 558.685 91.9164 558.689 91.9727 559.494C92.0232 559.932 92.3916 560.886 92.7669 561.58C93.652 563.176 93.4589 563.42 91.9624 562.596C90.4211 561.704 90.2337 562.316 91.4199 564.283C92.5248 566.185 92.3892 566.607 91.0984 565.649C89.767 564.658 89.5655 564.829 90.3609 566.288C91.2824 567.879 91.1315 568.487 89.9053 568.407C88.7883 568.315 88.7535 568.651 89.7324 570.42C90.6133 571.98 90.6454 571.939 89.4668 571.632C88.8999 571.513 88.4142 571.459 88.382 571.499C88.3541 571.576 88.1947 572.112 88.0115 572.76C87.8605 573.368 87.1974 574.331 86.5929 574.843C85.8512 575.446 85.3854 576.201 85.324 576.946C85.1733 578.514 82.4591 582.15 80.0201 584.019C77.8231 585.749 77.2369 586.74 77.7762 587.895C78.0703 588.526 78.0059 588.607 77.5678 588.326C76.7684 587.79 73.7576 587.585 72.4364 587.959C71.6485 588.161 71.2133 588.543 71.0623 589.151C70.9351 589.646 70.1628 590.621 69.3932 591.3C66.1174 594.226 66.3385 593.905 67.0777 594.558C67.6097 595.013 67.635 595.232 67.3328 595.488C67.0585 595.667 66.7953 595.624 66.6483 595.309C66.546 595.062 65.9202 594.433 65.3111 593.95C64.4137 593.205 63.8832 593.082 62.464 593.246C61.0084 593.414 59.7209 594.08 54.8846 597.222C49.8383 600.463 45.3184 603.791 44.381 604.933C44.2159 605.099 44.3813 605.892 44.7287 606.664C45.2889 608.002 45.2778 608.225 44.4008 610.209C43.2721 612.886 43.3172 613.914 44.6273 613.763C45.6462 613.645 47.8904 615.194 47.9956 616.105C48.0335 616.432 47.5523 617.374 46.9535 618.255C45.6188 620.107 45.6245 620.476 46.8296 620.373C49.58 620.24 50.8404 622.53 49.7174 625.576C48.9342 627.734 48.2789 631.316 48.4263 632.591C48.481 633.064 48.2208 633.685 47.85 633.986C47.072 634.593 47.1045 635.512 47.8425 636.792C48.2542 637.483 48.2921 637.81 47.9829 638.326C47.7255 638.651 47.5243 639.782 47.5288 640.778C47.5126 642.551 47.5168 642.588 48.4629 642.478C50.5736 642.234 52.6006 643.181 52.7522 644.492C52.7732 644.675 52.1898 645.369 51.4523 646.008C49.9817 647.323 49.8391 648.003 50.9982 648.46C51.5413 648.693 52.1964 648.617 53.218 648.203C55.015 647.479 55.5665 647.784 56.1467 649.932C56.5334 651.364 56.4706 651.777 55.7403 653.116C54.9864 654.569 54.9668 654.719 55.5758 655.202C56.1078 655.657 56.3626 655.628 57.2624 655.118C58.8928 654.228 60.007 654.616 62.299 656.898C65.5458 660.103 68.7906 661.057 70.0889 659.209C70.4065 658.766 71.0922 658.318 71.5933 658.186C72.2762 658.033 72.5617 657.631 72.8678 656.451C73.6813 652.962 74.0134 649.454 73.7996 646.009C73.6657 643.256 73.7578 642.138 74.1677 641.537C75.2407 639.974 75.937 637.383 76.6185 632.432C77.3418 626.886 78.1051 623.919 79.0509 622.85C79.5742 622.272 79.8248 622.207 80.6632 622.442C81.1658 622.642 82.4241 622.681 83.3703 622.572C85.4445 622.332 88.6072 620.342 89.1428 618.915C89.7344 617.333 89.0318 613.17 87.7251 610.479C86.4674 607.893 86.4126 607.419 87.4878 608.107C88.0842 608.481 88.1891 608.432 88.4857 607.807C88.6619 607.418 89.2523 606.463 89.8315 605.732C91.1831 604.026 91.3268 602.717 90.418 601.235C89.5218 599.862 89.5582 599.858 91.6005 600.619C92.4838 600.922 93.3867 601.076 93.6288 600.938C93.8751 600.835 95.7722 598.106 97.8413 594.951C102.417 587.963 103.428 586.813 105.428 586.249C106.535 585.937 107.381 585.285 108.516 583.936C110.496 581.603 110.881 580.784 110.178 580.127C109.515 579.502 110.425 579.397 111.456 580.016C112.92 580.88 113.678 580.423 115.554 577.512C117.366 574.682 118.985 573.055 120.186 572.917C121.023 572.82 121.217 571.948 120.635 571.056C119.971 570.099 120.588 569.696 121.8 570.294C123.13 570.952 123.267 570.863 122.861 569.581C122.516 568.513 122.553 568.509 123.235 568.984C123.921 569.495 124.126 569.361 126.772 566.729L129.547 563.936L132.433 563.381L135.323 562.862L135.117 561.077C134.938 559.215 134.874 559.297 138.22 555.699C138.743 555.122 139.606 553.656 140.167 552.447C141.112 550.418 141.7 549.76 143.174 549.11C143.557 548.918 143.788 548.042 143.93 546.402C144.135 543.388 145.392 539.589 146.735 537.81C148.653 535.262 152.593 533.294 153.706 534.309C154.734 535.224 154.854 535.948 154.282 537.38C154.002 538.151 153.759 538.917 153.776 539.063C153.839 539.609 156.387 540.274 156.709 539.868C157.223 539.218 158.819 539.624 160.041 540.627L161.182 541.565L160.566 542.929L159.949 544.292L161.269 544.545C162.216 544.768 163.053 544.671 164.544 544.167C166.495 543.498 166.572 543.526 167.433 544.275C167.892 544.739 169.51 545.659 170.994 546.374L173.654 547.69L174.771 546.823C178.125 544.258 180.642 541.789 180.397 541.264C174.998 530.925 171.601 515.89 173.87 512.232C174.207 511.639 174.461 510.65 174.39 510.031C174.268 508.974 174.521 508.613 177.378 506.216C181.545 502.707 184.509 499.633 187.965 495.395C191.288 491.283 192.778 488.859 195.09 483.978C196.008 482.027 197.633 479.181 198.674 477.658C199.747 476.095 200.621 474.407 200.704 473.843C200.75 473.285 201.05 472.696 201.402 472.545C202.173 472.197 205.131 464.289 206.889 457.811L208.195 453.157L209.969 452.546C212.239 451.767 216.087 449.329 218.315 447.226C219.277 446.302 221.709 443.733 223.702 441.509C225.653 439.254 227.989 436.806 228.859 436.041C231.792 433.34 235.738 431.112 239.169 430.162C240.134 429.902 240.82 429.454 241.089 428.906C241.329 428.435 243.54 425.227 246.02 421.803C250.696 415.357 252.316 412.143 252.051 409.848C251.971 409.156 252.177 408.394 252.568 407.943C253.84 406.504 252.826 404.111 248.99 399.646C247.538 397.931 246 395.784 245.522 394.842C244.795 393.339 244.385 392.981 242.601 392.227C239.655 390.981 237.455 389.5 235.687 387.601L234.171 385.967L233.716 382.033C233.156 377.189 232.336 374.885 228.96 368.963C225.616 363.001 225.109 361.805 224.698 358.568C224.065 353.732 224.101 353.727 228.422 349.315C230.568 347.148 232.86 344.964 233.542 344.479C234.256 343.954 234.706 343.385 234.608 343.175C234.327 342.653 235.805 338.533 236.506 337.898C236.836 337.565 237.016 336.252 237.038 333.888C237.034 331.304 237.348 329.238 238.163 326.08C239.412 321.248 239.411 319.329 238.109 317.634L237.251 316.589L239.264 313.588C241.369 310.429 242.259 309.514 244.623 307.949C245.684 307.236 246.038 306.789 245.962 306.133C245.907 305.659 246.058 305.051 246.324 304.799C246.622 304.506 246.762 303.162 246.692 301.287C246.606 297.348 246.994 294.645 248.039 292.199C248.907 290.143 249.961 283.303 249.721 281.227C249.632 280.462 249.843 279.736 250.362 279.123C251.497 277.774 251.679 275.833 251.264 270.012C250.907 265.329 250.961 264.843 251.578 264.44C252.337 263.983 252.61 263.471 253.007 261.801C253.32 260.363 255.293 259.249 259.758 257.994C261.967 257.333 264.326 256.359 265.911 255.401C270.987 252.415 275.113 251.421 279.263 252.233C282.28 252.807 283.553 252.66 285.559 251.506C286.458 250.996 287.512 250.542 287.912 250.495C288.349 250.445 290.208 250.894 292.088 251.526L295.536 252.641L299.194 252.07C302.416 251.55 303.269 251.267 306.004 249.733C307.772 248.753 310.062 247.824 311.282 247.536C312.47 247.287 313.706 246.812 314 246.483C314.289 246.117 315.073 245.879 315.773 245.872C316.8 245.827 316.974 245.733 316.999 244.992C317.024 244.251 317.234 244.153 318.37 244.096C319.361 244.055 319.676 243.908 319.561 243.552C319.323 242.767 320.011 242.023 321.438 241.6C323.825 240.881 323.95 240.682 323.437 238.158C322.684 234.517 322.541 234.238 319.635 232.064C317.207 230.204 316.825 229.768 316.255 228.026C315.874 226.962 315.015 224.958 314.309 223.637C313.032 221.201 313.032 221.201 310.301 220.225C307.452 219.188 304.528 218.456 293.428 215.9C275.322 211.755 269.106 207.749 263.728 196.634C262.96 195.098 262.169 193.676 261.957 193.443C261.746 193.209 259.734 192.075 257.496 190.895C255.257 189.714 252.324 187.949 250.957 186.963C248.777 185.333 248.351 185.16 247.163 185.408C246.403 185.533 244.877 185.414 243.739 185.14C242.597 184.829 241.322 184.644 240.922 184.69C240.376 184.753 240.015 184.5 239.793 183.861C239.536 183.227 238.894 182.784 237.517 182.353C234.944 181.469 234.055 180.796 233.908 179.522C233.798 178.575 233.676 178.478 233.01 178.776C231.113 179.586 228.237 181.506 227.597 182.355C226.765 183.448 226.17 185.953 226.545 186.647C226.688 186.926 227.669 187.44 228.738 187.76L230.691 188.383L232.343 192.141C233.745 195.338 234.278 196.125 235.834 197.459C238.002 199.312 239.088 201.364 238.458 202.618C238.282 203.008 237.897 202.868 236.89 202.135C234.272 200.223 230.165 199.148 226.927 199.522C224.093 199.886 223.685 200.192 224.008 201.705C224.26 202.931 224.422 203.06 226.132 203.489C227.152 203.704 228.482 204.362 229.095 204.882C230.322 205.921 231.78 206.417 233.163 206.257C233.782 206.185 234.337 206.527 235.066 207.403C236.49 209.194 239.383 211.259 243.544 213.436C245.507 214.464 247.608 215.734 248.221 216.254L249.321 217.16L247.603 218.245L245.848 219.333L244.143 217.98C242.401 216.631 242.401 216.631 239.636 216.951L236.87 217.271L235.492 215.88L234.119 214.525L227.557 215.505C220.414 216.552 219.006 216.494 217.697 215.058C216.94 214.259 216.911 214.004 216.738 206.126C216.6 200.789 216.718 197.343 217.04 195.977C217.618 193.327 217.547 192.707 216.549 192.048C215.948 191.637 215.695 191.039 215.526 189.582C215.332 187.907 215.194 187.664 214.575 187.736C213.738 187.833 213.342 186.956 213.193 184.389C213.063 182.632 213.019 182.564 211.889 182.362C211.209 182.219 210.296 181.66 209.734 180.95C207.729 178.598 205.065 176.286 204.166 176.168C203.681 176.113 203.251 175.905 203.23 175.723C203.141 174.958 201.015 174.428 197.799 174.357C195.913 174.317 193.748 174.087 192.986 173.88C191.69 173.513 191.508 173.534 190.169 174.39L188.729 175.332L187.039 174.752C184.924 174 184.524 174.046 183.825 175.013Z" fill="black"/>
<path d="M72.7506 540.272L71.9951 541.392L72.913 540.4C73.7259 539.458 73.947 539.137 73.6559 539.17C73.5831 539.179 73.1969 539.666 72.7506 540.272Z" fill="black"/>
<path d="M220.771 563.541C204.319 567.325 193.445 582.682 195.39 599.51C195.622 601.513 196.12 604.224 196.485 605.473C200.001 617.063 209.916 625.956 221.994 628.362C224.975 628.94 226.383 628.999 230.334 628.726C238.086 628.162 243.901 625.829 249.543 621.043C263.04 609.554 265.07 589.794 254.187 575.402C251.965 572.448 245.542 567.285 242.356 565.881C235.359 562.777 227.665 561.932 220.771 563.541Z" fill="black"/>
</g>
</g>
<defs>
<clipPath id="clip0_327_1017">
<rect width="1280" height="720" fill="white"/>
</clipPath>
<clipPath id="clip1_327_1017">
<rect width="439.222" height="350.39" fill="white" transform="matrix(-0.732507 -0.680759 -0.680759 0.732507 1059.26 191.004)"/>
</clipPath>
<clipPath id="clip2_327_1017">
<rect width="319.968" height="380.276" fill="white" transform="translate(1022.27 95.3431) rotate(27.903)"/>
</clipPath>
<clipPath id="clip3_327_1017">
<rect width="523.907" height="270.459" fill="white" transform="translate(187.484 567.006) rotate(-6.59378)"/>
</clipPath>
<clipPath id="clip4_327_1017">
<rect width="343.614" height="469.326" fill="white" transform="translate(-26.8096 198.66) rotate(-6.59378)"/>
</clipPath>
</defs>
</svg>
