<svg width="375" height="812" viewBox="0 0 375 812" fill="none" xmlns="http://www.w3.org/2000/svg">
<g clip-path="url(#clip0_327_1016)">
<rect width="375" height="812" fill="white"/>
<g clip-path="url(#clip1_327_1016)">
<path d="M350.145 128.95C349.042 128.905 347.759 128.776 347.356 128.652C346.283 128.322 344.777 128.536 343.273 129.222C342.533 129.524 341.545 129.869 341.023 129.943C338.571 130.367 334.74 132.311 334.048 133.511C333.876 133.782 333.376 134.836 332.919 135.844C332.47 136.825 331.701 138.179 331.209 138.823C330.45 139.856 330.341 140.117 330.439 140.942C330.514 141.466 330.335 142.618 330.089 143.514C329.634 144.994 329.638 145.172 330.237 145.71C330.782 146.231 330.813 146.417 330.416 147.708C330.176 148.488 329.539 149.795 329.005 150.573C328.437 151.37 327.614 152.707 327.137 153.591C326.326 155.079 326.285 155.214 326.621 155.936C327.265 157.282 327.258 158.164 326.677 159.958C326.253 161.241 326.164 162.009 326.325 162.824C326.972 165.88 327.288 168.481 327.084 168.859C326.939 169.139 326.356 169.313 325.673 169.338C325.024 169.345 324.183 169.499 323.805 169.677C323.427 169.855 321.901 170.328 320.399 170.72C318.897 171.112 315.224 172.162 312.23 173.008C309.042 173.912 306.204 174.541 305.421 174.506C303.74 174.431 302.837 174.595 301.535 175.196C299.645 176.087 294.782 177.183 292.685 177.215C291.558 177.251 290.217 177.31 289.686 177.412C289.128 177.505 287.862 177.322 286.27 176.862C284.374 176.338 283.589 176.214 283.132 176.456C282.79 176.616 282.409 176.705 282.302 176.672C282.168 176.631 281.013 177.041 279.682 177.545C276.838 178.673 273.953 180.406 273.476 181.29C273.298 181.677 272.69 182.698 272.169 183.627C271.425 184.9 271.172 185.53 271.205 186.188C271.226 186.694 270.973 187.706 270.644 188.489C270.08 189.847 270.082 189.936 270.732 191.166C271.095 191.896 271.607 192.525 271.822 192.591C272.036 192.657 272.722 193.104 273.329 193.614C275.266 195.152 277.653 196.181 280.076 196.426C281.243 196.549 282.365 196.629 282.559 196.571C282.78 196.521 284.798 196.936 287.024 197.532C290.019 198.306 291.919 198.625 294.197 198.767C296.476 198.908 297.841 199.151 299.489 199.717C301.513 200.398 301.798 200.427 302.909 200.062C303.668 199.795 304.857 199.748 306.051 199.88C307.914 200.129 317.811 199.963 319.476 199.709C320.777 199.491 321.174 199.731 321.927 201.2C322.385 202.195 322.614 203.266 322.627 205.037C322.712 208.392 323.422 213.823 324.428 218.196C324.874 220.188 325.191 222.023 325.116 222.266C324.942 222.831 322.978 222.433 314.465 220.109C310.316 218.98 307.627 218.359 307.05 218.417C306.084 218.502 306.003 218.478 302.538 215.409C300.825 213.91 300.699 213.842 297.074 212.727C295.061 212.108 293.113 211.656 292.776 211.7C292.458 211.779 291.632 211.79 290.973 211.734C290.287 211.671 288.579 211.587 287.121 211.551C284.142 211.489 283.151 211.272 282.878 210.629C282.585 209.861 273.666 206.853 270.474 206.431C266.187 205.848 263.797 205.496 261.913 205.123C260.914 204.933 259.8 204.826 259.42 204.915C259.04 205.004 258.462 204.974 258.113 204.866C257.764 204.759 256.524 204.584 255.357 204.461C250.326 204.003 249.132 203.871 247.552 203.562C245.614 203.172 244.569 203.322 242.493 204.244C241.64 204.629 240.466 205.005 239.89 205.063C238.161 205.238 226.28 204.499 225.099 204.136C224.696 204.012 224.099 203.946 223.7 204C223.31 204.027 221.571 203.758 219.83 203.399C218.097 203.013 215.436 202.489 213.937 202.205C211.376 201.741 211.169 201.648 210.781 200.999C210.542 200.63 209.912 199.907 209.359 199.412C208.642 198.78 208.401 198.323 208.422 197.681C208.457 196.897 208.348 196.775 207.218 196.339C205.954 195.862 206.025 195.825 203.853 197.248L202.855 197.913L201.468 196.691C200.706 196.015 199.911 195.063 199.705 194.588C199.374 193.75 199.294 193.725 198.327 193.811C197.379 193.931 196.423 193.696 194.682 192.954C193.982 192.651 193.876 192.707 193.581 193.381C193.184 194.29 193.468 194.702 194.838 195.123C195.643 195.37 195.87 195.588 195.938 196.227C196.004 196.777 195.923 197.135 195.644 197.373C195.086 197.85 193.434 197.872 191.833 197.438C191.108 197.215 190.138 197.123 189.695 197.222C189.253 197.322 188.237 197.186 187.397 196.957C186.162 196.577 185.779 196.577 185.317 196.936C184.759 197.412 184.705 197.395 182.047 196.195C178.617 194.639 169.546 191.643 167.755 191.446C165.217 191.195 163.263 191.242 162.914 191.517C162.277 192.058 162.175 193.057 162.501 194.866C162.674 195.832 162.851 196.976 162.861 197.421C162.898 197.874 163.189 198.552 163.509 198.945C164.267 199.826 164.39 200.188 164.175 200.888C163.977 201.533 164.377 201.951 165.532 202.306C166.525 202.612 168.051 204.053 168.11 204.719C168.117 204.986 168.065 205.441 167.982 205.71C167.899 205.979 168.11 206.633 168.45 207.15C169.003 208.027 169.102 208.087 169.755 207.876C170.505 207.635 171.639 207.866 172.068 208.381C172.196 208.538 172.297 209.07 172.272 209.533C172.239 210.024 172.27 210.593 172.381 210.804C172.581 211.395 174.612 211.961 175.754 211.782C176.621 211.637 176.783 211.686 177.606 212.352C178.168 212.819 179.892 213.615 182.447 214.577C185.082 215.564 186.86 216.376 187.746 217.032C189.219 218.074 193.04 221.988 194.243 223.713C194.683 224.29 195.234 225.078 195.509 225.427C195.866 225.89 195.959 226.449 195.812 227.405C195.677 228.129 195.668 228.922 195.771 229.16C196.035 229.83 197.027 230.047 198.291 229.758C199.175 229.559 199.514 229.604 200.012 229.993C200.582 230.433 200.602 230.557 200.168 231.396C199.606 232.459 199.829 232.881 201.198 233.303C201.815 233.493 202.454 233.424 203.272 233.057C204.503 232.493 205.127 232.567 206.006 233.339C207.367 234.552 211.553 232.983 215.163 229.941C216.357 228.924 216.868 228.316 217.116 227.508C217.819 225.221 219.507 224.415 223.498 224.435C226.227 224.45 238.658 227.508 241.122 228.767C242.03 229.252 243.559 230.017 244.537 230.465C245.535 230.949 247.319 232.027 248.502 232.863C250.507 234.274 251.127 234.553 255.623 236.083C259.904 237.548 260.995 237.824 263.882 238.182C265.718 238.423 267.472 238.55 267.817 238.479C268.127 238.428 268.732 238.466 269.162 238.599C269.573 238.696 270.267 238.732 270.709 238.633C271.151 238.533 271.737 238.537 272.041 238.601C272.336 238.692 273.012 238.693 273.516 238.583C274.764 238.349 275.625 238.319 279.496 238.538C281.489 238.65 283.22 238.564 283.97 238.324C285.858 237.726 287.106 238.257 291.659 241.513C295.219 244.081 296.621 245.16 297.899 246.26C298.161 246.458 298.95 247.142 299.639 247.767C300.337 248.364 301.27 249.152 301.714 249.524C303.209 250.779 315.347 262.435 318.586 265.758C320.405 267.583 321.875 269.302 321.898 269.515C321.912 269.755 321.403 271.984 320.73 274.457C320.05 276.957 319.576 279.167 319.687 279.378C319.755 279.635 320.439 279.992 321.244 280.24C323.123 280.818 325.292 281.985 325.634 282.592C325.83 283.005 325.477 283.486 323.111 285.732C318.92 289.803 316.547 292.548 315.309 294.759C314.19 296.771 314.19 296.771 311.126 298.42C308.167 300.013 308.089 300.078 307.77 301.305C307.59 301.986 307.42 303.877 307.413 305.524C307.406 307.171 307.277 309.311 307.13 310.267C306.983 311.223 306.947 312.39 307.038 312.859C307.198 313.675 307.018 313.973 304.658 317.252C302.167 320.668 299.068 325.87 297.518 329.192C296.382 331.64 295.553 333.093 293.538 335.919C292.548 337.323 291.345 339.132 290.857 339.954C290.369 340.776 289.331 342.43 288.569 343.667C286.39 347.12 286.005 348.18 285.745 351.222C285.502 354.21 285.762 356.233 286.636 358.358C286.948 359.16 287.187 359.911 287.154 360.019C286.997 360.53 287.967 362.536 288.813 363.415C290.997 365.677 292.924 367.536 293.138 367.602C293.273 367.644 293.698 367.981 294.088 368.336C295.385 369.471 296.956 370.573 298.197 371.22C298.881 371.577 299.558 372.051 299.697 372.27C299.862 372.497 301.908 373.392 304.418 374.311C309.409 376.141 310.376 376.821 310.54 378.58C310.682 380.125 311.206 380.522 314.347 381.488C315.905 381.967 319.139 383.109 321.594 384.012C324.015 384.933 330.57 387.126 336.119 388.862L346.279 392.046L347.512 391.571C348.208 391.314 349.032 391.214 349.381 391.322C350.053 391.528 354.531 394.643 357.201 396.76C358.116 397.513 360.93 399.351 363.435 400.857C368.67 403.999 369.521 404.673 369.281 405.453C369.181 405.776 369.324 406.173 369.658 406.423C370.536 407.105 374.75 415.764 376.173 419.736C376.868 421.775 378.358 425.532 379.439 428.132C380.555 430.714 381.388 432.973 381.33 433.161C381.181 433.645 383.437 437.49 383.974 437.656C384.189 437.722 384.722 438.092 385.157 438.491C385.911 439.194 385.946 439.175 386.822 438.62C387.322 438.332 387.992 437.684 388.31 437.222C388.602 436.752 389.375 435.959 390.003 435.446C391.207 434.491 391.315 434.141 390.837 432.639C390.511 431.597 390.842 430.903 392.588 429.143C394.109 427.638 394.192 427.369 393.355 426.552L392.682 425.874L393.452 423.372C394.048 421.435 394.447 420.615 395.123 419.851C396.344 418.46 396.607 417.51 395.959 416.751C395.62 416.323 395.451 415.535 395.462 414.448C395.477 413.54 395.495 411.189 395.477 409.24C395.459 407.291 395.548 404.138 395.691 402.238C395.861 400.347 395.988 398.118 396.005 397.299C396.035 395.865 396.103 395.739 397.134 394.583C398.391 393.173 398.441 392.629 397.359 391.56C396.55 390.752 396.589 390.528 397.796 389.662C398.321 389.294 398.79 388.819 398.856 388.604C399.052 387.87 398.654 386.775 397.855 386.029C397.447 385.638 397.011 384.856 396.929 384.36C396.562 382.303 396.236 381.643 395.199 381.001C394.163 380.358 391.185 379.53 386.632 378.66C379.938 377.396 375.62 376.245 368.278 373.839C361.572 371.659 360.209 371.122 358.164 369.933C354.85 368.001 350.615 365.049 348.918 363.496C346.694 361.457 342.928 358.797 340.671 357.632C337.236 355.898 327.274 352.362 324.983 352.07C321.507 351.619 321.257 351.572 321.16 351.218C321.137 351.005 321.545 350.541 322.131 350.162C322.691 349.775 324.03 348.861 325.061 348.089C326.111 347.352 327.58 346.302 328.359 345.775C329.103 345.268 329.791 344.655 329.874 344.386C329.957 344.117 330.488 343.632 331.066 343.28C333.213 341.938 335.323 339.377 340.284 332.038C342.881 328.184 344.489 325.822 344.677 325.497C344.789 325.325 345.247 325.172 345.708 325.107C348.972 324.815 350.155 324.502 353.368 323.134C358.254 321.103 363.069 317.872 371.105 311.332C377.143 306.416 379.485 303.867 381.407 300.1C386.072 291.05 390.285 279.359 390.994 273.422C391.463 269.413 391.579 265.503 391.245 263.339C391.078 262.257 390.994 261.288 391.035 261.154C391.077 261.019 391.827 260.396 392.666 259.77C394.922 258.167 396.255 256.604 396.735 255.044C397.497 252.568 397.42 247.656 396.432 237.398C396.268 235.639 395.996 232.699 395.848 230.887C395.682 229.039 395.357 225.7 395.137 223.453C394.917 221.206 394.704 218.078 394.624 216.522C394.571 214.974 394.45 213.17 394.409 212.539C394.245 211.163 394.453 210.962 395.916 210.793C396.794 210.71 398.054 211.009 402.494 212.434C408.07 214.178 409.425 214.742 410.189 215.507C410.443 215.733 411.29 216.229 412.062 216.584C412.861 216.948 414.088 217.737 414.794 218.308C416.524 219.753 418.228 220.424 419.503 220.198C420.281 220.055 420.862 220.174 422.109 220.705C422.962 221.085 423.873 221.66 424.11 221.939C424.339 222.245 424.8 222.564 425.176 222.679C426.142 222.976 431.41 226.776 433.262 228.494C434.152 229.327 435.62 230.574 436.516 231.292C437.439 232.017 438.634 233.003 439.188 233.497C439.741 233.992 441.077 234.903 442.14 235.554C443.212 236.178 444.296 236.954 444.571 237.303C444.818 237.644 445.432 238.039 445.915 238.188C446.962 238.51 449.735 240.865 451.207 242.672C451.756 243.371 452.357 243.998 452.518 244.047C452.679 244.097 453.548 244.806 454.411 245.631C455.309 246.437 456.453 247.496 456.961 247.947C459.073 249.774 459.93 251.098 460.747 253.794C461.18 255.252 461.592 256.969 461.625 257.627C461.693 258.266 461.804 259.243 461.869 259.793C461.944 260.317 461.956 260.851 461.914 260.985C461.674 261.765 464.059 263.854 468.416 266.696C470.004 267.744 471.62 270.037 472.154 272.027C472.55 273.416 472.808 273.819 473.692 274.385C475.334 275.45 476.21 275.277 476.896 273.81C477.295 272.99 477.415 272.409 477.302 271.726C477.051 270.441 477.171 270.242 478.348 269.662C479.042 269.316 479.468 268.888 479.634 268.35C479.774 267.892 480.32 267.265 480.994 266.795C481.624 266.37 482.213 265.697 482.329 265.32C482.444 264.944 482.707 264.377 482.879 264.106C483.11 263.735 483.036 263.212 482.679 262.366C482.033 260.93 482.104 260.51 482.963 260.774C483.312 260.881 483.847 260.958 484.113 260.951C484.752 260.883 485.785 259.816 486.083 258.848C486.406 257.798 485.916 257 483.352 254.444C483.034 254.14 482.293 253.206 481.715 252.409C479.998 249.967 475.243 246.03 473.363 245.452C472.665 245.238 469.868 242.581 469.222 241.528C468.852 240.914 464.791 236.631 464.496 236.54C464.227 236.458 459.715 231.065 458.548 229.41C455.124 224.587 441.439 212.132 437.179 210.026C436.621 209.737 435.576 209.121 434.864 208.666L433.592 207.833L434.266 206.215C435.666 202.905 434.899 200.048 431.79 196.972C430.935 196.12 429.525 195.067 428.697 194.607C427.86 194.173 426.022 193.077 424.598 192.168C423.165 191.285 420.193 189.576 417.963 188.419C415.714 187.227 412.759 185.464 411.394 184.455C408.91 182.689 403.438 179.269 400.099 177.417C399.163 176.923 396.181 175.535 393.488 174.353C389.449 172.58 387.774 172.006 384.135 171.034L379.7 169.876L378.895 168.863C378.154 167.928 377.83 167.74 375.457 166.952C372.815 166.08 372.815 166.08 369.715 166.511C366.943 166.924 366.418 166.91 364.753 166.398C363.733 166.084 362.826 165.688 362.698 165.531C362.57 165.373 362.957 163.637 363.524 161.603C364.785 157.219 365.886 155.261 366.96 155.591C367.497 155.757 367.646 155.655 367.853 154.983C367.994 154.525 367.994 154.142 367.833 154.093C367.403 153.961 367.621 152.585 368.102 152.261C368.435 152.04 368.474 151.816 368.301 151.233C368.159 150.836 368.136 150.24 368.227 149.944C368.318 149.648 368.406 148.408 368.423 147.206C368.413 145.23 368.296 144.752 367.163 142.607C366.484 141.279 365.803 139.863 365.696 139.447C365.57 138.996 364.938 138.183 364.294 137.602C363.623 137.013 362.112 135.429 360.9 134.114C359.696 132.772 358.404 131.432 358.059 131.119C357.054 130.28 352.537 129.009 350.145 128.95Z" fill="black"/>
<path d="M171.077 123.319C167.444 122.614 164.599 122.975 161.364 124.513C154.672 127.638 152.573 129.113 150.262 132.23C148.149 135.085 145.814 140.669 146.088 142.167C146.167 142.486 146.119 143.502 146.023 144.385C145.893 145.288 145.937 146.862 146.094 147.882C146.224 148.894 146.353 150.288 146.342 150.992C146.333 152.55 147.33 155.713 148.448 157.618C148.91 158.408 149.91 159.746 150.694 160.635C151.97 162.029 152.876 162.809 156.05 165.198C157.597 166.381 158.889 166.955 162.264 168.023C165.271 168.948 165.913 169.057 167.706 168.96C174.825 168.558 177.729 167.714 180.5 165.297C181.503 164.428 182.763 163.579 183.327 163.369C184.879 162.816 186.117 161.371 188.676 157.063C189.883 155.049 190.413 152.944 190.013 151.761C189.877 151.248 189.999 150.372 190.463 148.866C191.18 146.436 191.246 144.218 190.658 141.446C189.504 136.025 185.615 129.94 181.756 127.487C179.132 125.796 174.299 123.927 171.077 123.319Z" fill="black"/>
</g>
<g clip-path="url(#clip2_327_1016)">
<path d="M67.0361 -55.5434C67.0871 -55.3966 67.6687 -54.5437 68.3043 -53.6857C71.7929 -49.1148 73.8874 -43.7819 74.3403 -38.3877C74.6364 -34.8431 74.431 -33.192 73.5324 -32.0332C72.9333 -31.2606 72.6291 -31.0495 71.8235 -30.9519C70.9046 -30.8105 70.786 -30.7127 70.0106 -29.4765C69.5583 -28.7554 68.2621 -27.0995 67.1391 -25.7656C65.2444 -23.5664 64.9813 -23.3295 63.3248 -22.5599L61.5755 -21.7336L59.7282 -19.0166L57.8809 -16.2997L57.2258 -16.6245C56.2366 -17.1014 55.9506 -16.9649 54.6421 -15.5177C53.6407 -14.4233 53.2772 -14.1633 52.3659 -13.9884C51.5216 -13.829 51.1969 -13.6308 50.8221 -13.0333C50.4861 -12.4976 49.9447 -12.0908 49.0327 -11.6867C48.3269 -11.383 47.4173 -10.8913 47.028 -10.5901C46.6386 -10.2888 46.1101 -9.90261 45.8523 -9.7198C45.615 -9.52412 44.884 -9.40846 44.2899 -9.46533C43.6623 -9.5145 43.1321 -9.44513 43.0827 -9.27514C43.0539 -9.09226 44.1389 -7.03371 45.5009 -4.68655C49.1851 1.67214 49.2925 1.91174 48.935 3.6684C48.4211 6.13082 46.4785 11.6014 44.6426 15.7609C42.8195 19.8998 42.5992 20.4793 42.8252 20.6211C42.9074 20.6726 43.9784 20.4257 45.2015 20.0732C48.3299 19.1933 52.4376 18.6693 56.948 18.5987C62.7036 18.5055 65.2863 18.6326 66.026 19.0965C67.3615 19.9341 70.411 25.9809 71.3165 29.6494C71.8127 31.597 71.8167 32.0014 71.3793 33.7941C71.0984 34.881 70.8409 35.8392 70.7892 35.9216C70.7376 36.004 70.3001 36.0167 69.8269 35.9496C69.3667 35.8619 68.4272 35.9903 67.7731 36.2116C66.8124 36.5565 66.267 36.5588 64.9249 36.2338L63.277 35.803L62.2265 34.2829C61.3579 33.0204 61.1842 32.5669 61.2103 31.5211C61.2378 30.0168 60.922 29.79 57.862 29.1913C56.0414 28.8532 55.4085 28.8582 53.8507 29.2878C52.8003 29.5476 50.6829 30.4587 49.0698 31.3417C45.5911 33.2364 42.7907 34.5517 40.6298 35.3495C39.749 35.6583 38.9117 36.0804 38.7954 36.2659C38.5498 36.6573 39.986 42.8117 41.0296 45.8491C41.8614 48.2656 43.257 50.6051 44.6833 52.0739C46.7177 54.125 52.8128 57.6897 61.1066 61.6286C62.6687 62.3787 65.8868 64.3685 72.3428 68.5901C77.3249 71.8298 83.4293 75.7448 85.9617 77.2758L90.5411 80.062L93.3375 84.6868C94.8662 87.2246 97.8329 91.6691 99.8958 94.542L103.645 99.7931L108.727 110.359C112.789 118.763 114.711 123.184 118.254 132.095C121.429 140.087 123.323 144.462 124.876 147.417C126.082 149.694 127.211 151.637 127.416 151.766C127.601 151.882 128.363 151.9 129.081 151.805C131.477 151.499 131.23 151.345 136.161 156.217C140.754 160.763 144.27 163.83 150.888 169.071C155.724 172.909 156.901 174.364 157.436 177.026C157.974 179.774 157.806 180.042 153.839 182.578L151.766 183.919L147.073 183.415C142.69 182.963 142.222 182.842 139.899 181.844C137.031 180.62 136.207 180.016 133.254 177.102C131.255 175.131 130.816 174.827 126.029 171.824C122.043 169.324 120.273 168.357 117.786 167.257C113.615 165.416 112.581 164.738 112.072 163.586C111.456 162.195 111.686 160.732 113.045 157.106C113.724 155.293 114.254 153.672 114.208 153.472C114.17 153.304 110.302 147.146 105.643 139.832L97.1213 126.534L94.9517 124.972C92.9259 123.501 92.5591 123.127 89.3469 119.074C86.0936 114.995 85.7914 114.519 83.9166 110.615C82.8193 108.348 81.8606 106.225 81.738 105.919C81.6488 105.604 81.6544 104.546 81.7422 103.539C81.9435 101.483 81.7699 101.03 80.4755 100.218C78.0922 98.7228 65.2946 94.3419 64.1438 94.6248C63.9095 94.6788 61.2931 97.344 58.3201 100.532C55.3677 103.733 52.7871 106.478 52.6092 106.625C52.4312 106.771 51.281 106.825 50.0387 106.706L47.7572 106.51L45.7069 104.621C44.5675 103.562 40.6313 99.8869 36.9645 96.4674C33.2772 93.035 29.9901 89.9684 29.6385 89.6618C28.9916 89.1412 28.8707 89.1515 25.2889 90.2064C23.2573 90.7981 21.2127 91.4105 20.767 91.619L19.9273 91.9535L17.5918 98.0963C15.396 103.925 15.1087 104.52 12.4013 109.338C10.8187 112.135 8.32335 116.57 6.87005 119.161C5.38561 121.847 4.10096 123.941 3.93362 123.98C3.76628 124.018 0.663943 123.852 -2.95799 123.648C-6.58755 123.409 -9.70811 123.318 -9.8602 123.424C-10.0328 123.516 -12.399 127.745 -15.133 132.834C-18.8679 139.793 -20.6648 142.886 -22.3623 145.41C-24.6102 148.766 -24.6232 148.786 -28.1051 151.827L-31.6 154.889L-34.1328 158.927C-35.5079 161.165 -37.1551 164.065 -37.7737 165.371C-38.5891 167.127 -40.0083 169.481 -43.0809 174.243C-46.97 180.215 -47.7096 181.531 -53.0277 191.516C-56.1835 197.46 -58.827 202.405 -58.8916 202.508C-58.9562 202.611 -58.9529 203.245 -58.875 203.897C-58.6167 206.269 -59.1608 207.593 -61.2404 209.676C-62.1072 210.511 -63.267 211.218 -65.8666 212.488C-67.8014 213.427 -70.8162 215.039 -72.5662 216.094L-75.7542 218.027L-77.6805 217.767C-78.735 217.622 -80.5996 217.4 -81.8161 217.24L-84.0589 216.981L-86.1237 214.796C-89.2481 211.516 -89.9914 209.643 -88.8542 207.83C-88.3115 206.965 -85.822 204.593 -84.8865 204.06C-84.5618 203.862 -83.3023 203.36 -82.0739 202.953C-80.866 202.534 -79.3769 201.803 -78.7426 201.34C-78.1289 200.863 -76.4078 199.991 -74.9346 199.422C-72.1424 198.302 -68.2005 196.354 -66.8651 195.411C-65.6689 194.554 -63.034 189.029 -61.7041 184.581C-60.6468 181.024 -59.179 176.95 -58.675 176.146C-58.3132 175.569 -56.0208 166.529 -55.2923 162.765C-54.9765 161.212 -54.1237 158.072 -53.3557 155.798L-51.9982 151.626L-49.4521 148.342C-45.0235 142.651 -43.763 140.915 -40.2159 135.762L-36.7592 130.753L-31.5033 116.394C-24.4087 96.9585 -23.1702 93.8884 -17.6026 82.1364C-16.2179 79.2441 -14.8448 75.9139 -13.9628 73.3666L-12.5696 69.2739L-13.1854 66.8781C-13.7501 64.6291 -13.7571 64.3664 -13.2697 62.1744C-12.4521 58.7255 -12.7552 53.1382 -14.7085 34.3435C-16.5898 16.4839 -16.5792 16.3757 -15.4547 5.45417C-14.7534 -1.36923 -13.9835 -6.11126 -12.8285 -10.5543C-11.1087 -17.313 -11.2409 -16.9653 -9.39656 -19.5406C-6.54725 -23.5812 -4.24925 -25.5561 -0.209876 -27.3862C1.57288 -28.2202 2.99911 -28.5314 9.28226 -29.557C16.4843 -30.7239 16.7262 -30.7445 18.6648 -30.275C20.2305 -29.8958 20.9045 -29.8749 21.9139 -30.1605C23.5721 -30.6133 27.0243 -32.2375 29.2047 -33.5685C31.8231 -35.1415 32.9703 -36.8334 36.1568 -43.6482L38.6289 -48.959L41.8133 -52.3014C43.5553 -54.1658 45.2942 -55.8885 45.6448 -56.1279C46.3125 -56.5991 54.9083 -59.3034 55.5823 -59.2825C55.7983 -59.2618 58.2148 -58.55 60.9652 -57.6861C63.7157 -56.8222 66.1937 -56.0718 66.4585 -55.9918C66.7232 -55.9119 66.9774 -55.7237 67.0361 -55.5434Z" fill="black"/>
<path d="M182.613 130.405C184.147 131.655 186.412 134.252 187.413 135.942C190.624 141.229 191.475 147.906 189.688 153.676C187.954 159.363 187.618 159.898 183.253 163.936C178.803 168.064 173.124 170.043 166.85 169.638C159.794 169.203 153.284 165.206 149.578 159.063C144.38 150.463 145.651 139.49 152.696 132.138C160.546 123.913 173.693 123.174 182.613 130.405Z" fill="black"/>
</g>
<g clip-path="url(#clip3_327_1016)">
<path d="M114.744 723.896C114.699 724 113.89 724.582 112.946 725.187C105.549 730.057 101.631 738.537 102.649 747.381C103.031 750.68 105.06 755.588 107.124 758.25C107.984 759.33 109.566 760.994 110.647 761.9C111.712 762.84 112.543 763.7 112.473 763.815C112.413 763.955 111.853 764.437 111.214 764.864C109.725 765.917 109.27 766.59 109.147 768.03C108.994 769.54 109.109 769.756 110.805 771.78C112.74 774.116 114.149 774.979 115.412 774.595C116.181 774.349 116.559 774.431 117.311 774.945C118.223 775.57 118.307 775.566 119.78 774.983C121.277 774.39 121.337 774.395 121.68 775.042C121.889 775.424 122.237 775.721 122.432 775.702C122.661 775.698 123.815 775.038 125.018 774.214C126.762 773.002 127.695 772.517 129.931 771.748C133.41 770.545 134.332 770.614 135.75 772.227C136.715 773.353 136.74 773.343 137.789 772.928C138.587 772.612 139.131 772.6 140.083 772.89C141.199 773.231 141.504 773.197 143.126 772.555C145.746 771.518 147.645 769.897 148.677 767.836C149.824 765.555 150.799 764.59 152.895 763.76C155.765 762.624 157.885 762.51 163.838 763.255C170.135 764.068 189.435 764.691 194.677 764.297C195.745 764.223 199.631 763.612 203.318 762.936C207.015 762.284 210.812 761.738 211.799 761.753C212.762 761.778 215.489 762.177 217.837 762.639C220.195 763.126 226.741 764.275 232.424 765.214C238.133 766.144 243.517 767.202 244.498 767.567C246.028 768.15 246.437 768.452 247.187 769.547C248.326 771.183 248.799 771.286 254.27 771.324C256.55 771.32 260.075 771.403 262.155 771.479C266.459 771.631 266.11 771.334 266.919 775.71C267.648 779.741 267.747 784.514 267.257 789.839C266.94 793.414 266.698 794.699 266.288 795.122C265.983 795.446 264.813 796.575 263.674 797.635C260.656 800.511 257.796 803.788 255.699 806.879C254.654 808.395 253.223 810.323 252.463 811.175C251.728 812.017 250.212 814.385 249.11 816.416C248.009 818.446 246.642 820.61 246.082 821.238C245.133 822.339 244.908 822.428 241.194 823.839C236.847 825.473 237.052 825.334 229.027 832.047C216.027 842.962 212.746 847.362 214.427 851.683C215.349 854.014 218.149 855.544 220.783 855.197C223.078 854.869 227.082 852.878 231.168 850.072C233.116 848.721 235.353 847.372 236.152 847.056C237.524 846.513 237.644 846.523 239.094 847.196C239.916 847.595 240.763 847.84 240.988 847.751C241.786 847.435 242.094 845.95 241.94 843.228C241.854 841.697 241.937 840.012 242.118 839.447C242.796 837.44 243.025 837.291 250.982 833.909C262.404 829.07 264.441 827.799 267.932 823.345C269.067 821.91 273.618 818.601 275.515 817.851C276.913 817.297 276.997 817.293 277.834 817.947C279.133 818.97 279.588 818.732 288.239 812.437C290.452 810.808 293.504 808.817 294.987 807.969C297.593 806.532 301.899 803.697 309.356 798.542C311.254 797.211 314.59 794.992 316.738 793.562C318.895 792.157 320.963 790.672 321.348 790.259C321.708 789.856 322.539 788.599 323.145 787.432C325.033 783.959 325.468 783.381 326.896 782.323C331.482 779.03 350.922 760.609 367.427 743.959L373.839 737.478L376.667 737.402C382.892 737.229 390.182 735.735 396.231 733.37L400.359 731.765L402.733 731.927C404.039 732.019 407.943 732.474 411.414 732.926L417.721 733.764L422.744 737.776C435.146 747.595 441.702 753.581 444.988 758.02C447.107 760.892 451.651 769.82 453.987 775.65C455.346 779.083 455.491 779.229 456.281 778.018C456.972 776.991 456.951 775.115 456.273 772.745C455.589 770.435 455.706 769.49 456.709 769.47C457.711 769.45 460.563 770.09 464.7 771.207C470.132 772.68 472.416 773.052 472.597 772.488C472.762 771.958 472.035 771.434 468.03 769.193C466.292 768.228 464.813 767.335 464.773 767.235C464.565 766.709 465.617 766.814 467.785 767.551C470.61 768.49 474.942 769.443 476.458 769.481C477.625 769.512 478.474 769.031 478.256 768.479C478.187 768.304 477.694 767.716 477.162 767.173C476.629 766.63 476.067 765.867 475.908 765.466C475.214 763.711 471.777 761.593 466.231 759.469C457.6 756.188 456.41 755.296 448.356 745.816C440.447 736.481 437.571 733.299 434.679 730.588C431.071 727.233 429.701 726.326 424.291 723.742C420.016 721.694 415.557 719.836 398.181 712.769C394.708 711.36 390.937 709.635 389.816 708.919C388.67 708.213 385.502 706.771 382.676 705.686C379.861 704.627 377.544 703.659 377.504 703.559C377.454 703.434 374.958 702.451 371.953 701.35C363.322 698.214 358.918 695.696 355.012 691.734L352.917 689.577L353.032 687.241C353.307 682.175 353.417 677.493 353.351 675.577C353.194 672.334 352.614 670.796 349.24 664.971C345.583 658.649 345.424 658.393 343.796 657.269C342.157 656.12 340.143 655.7 337.211 655.875C334.183 656.03 331.48 655.911 330.847 655.552C330.374 655.305 330.309 655.359 329.824 656.102C329.358 656.895 329.234 656.945 326.529 657.697C322.701 658.748 320.64 659.593 317.893 661.26C315.681 662.599 315.506 662.668 314.429 662.573C313.806 662.529 313.297 662.557 313.292 662.617C313.287 662.677 313.236 663.132 313.205 663.637C313.083 664.787 312.172 666.133 310.688 667.271C309.809 667.967 309.484 668.386 309.513 668.896C309.511 669.911 310.808 671.804 312.287 672.987C312.974 673.556 313.651 674.245 313.76 674.52C313.869 674.796 313.886 676.152 313.793 677.522C313.608 680.263 313.897 682.38 314.604 683.144C315.156 683.737 315.189 684.768 314.845 689.224C314.696 691.109 314.702 692.875 314.836 693.141C315.015 693.447 315.499 693.574 316.382 693.544L317.663 693.5L318.492 695.375C319.058 696.659 319.46 697.311 319.789 697.413C320.447 697.616 320.75 698.453 320.642 699.713C320.55 700.793 321.58 704.271 322.291 705.265C322.559 705.651 323.048 705.864 323.721 705.887C324.878 705.893 327.309 705.105 328.522 704.306C329.851 703.432 330.159 704.064 329.356 705.976C328.629 707.713 325.165 713.694 320.901 720.571L318.103 725.099L313.284 728.311C307.185 732.377 304.639 733.53 301.402 733.593C298.924 733.676 296.73 733.384 293.271 732.521C291.865 732.179 290.21 731.936 289.601 732.003C288.992 732.07 286.757 732.693 284.636 733.388C280.468 734.748 278.278 735.122 275.505 734.973C273.007 734.86 271.71 735.083 268.186 736.246C264.463 737.488 261.719 737.994 255.349 738.602C252.65 738.859 249.607 739.193 248.594 739.333C246.554 739.648 238.071 741.846 232.836 743.425C229.013 744.561 227.906 744.681 221.382 744.538C219.058 744.501 216.62 744.539 215.926 744.61C215.243 744.707 211.687 744.403 208.023 743.97C200.778 743.097 198.439 743.095 192.607 744.041C186.85 744.958 177.539 746.816 173.078 747.944C170.588 748.582 168.213 749 166.941 749.069C165.201 749.12 164.118 749.375 160.345 750.636C154.485 752.607 147.394 754.457 146.397 754.272C146.243 754.246 146.384 753.437 146.71 752.438C149.28 744.927 147.991 736.711 143.267 730.609C139.313 725.506 133.824 722.432 127.536 721.789C125.158 721.542 123.691 721.63 119.506 722.214C118.248 722.393 114.879 723.581 114.744 723.896Z" fill="black"/>
</g>
<g clip-path="url(#clip4_327_1016)">
<path d="M25.412 484.2C25.133 484.931 22.141 487.098 20.649 487.637C19.4475 488.061 19.2009 488.417 19.5148 489.275C20.0235 490.626 19.529 491.726 18.1441 492.275C17.0943 492.69 16.8835 493.006 17.0006 494.02C17.0659 494.512 16.9382 495.364 16.7089 495.894C16.4884 496.447 16.4193 497.121 16.5432 497.434C16.6582 497.724 16.5802 498.376 16.3733 498.898C15.91 500.012 16.1278 501.607 17.057 503.954C17.6233 505.385 17.6714 505.702 17.4063 506.273L17.0918 506.914L18.185 508.24C18.7893 508.984 19.3578 509.767 19.4551 510.013C19.5525 510.259 19.3893 511.022 19.0838 511.686C18.5624 512.849 18.5619 512.979 19.0752 514.275C19.3672 515.013 19.561 515.764 19.5248 515.933C19.4295 516.411 18.5743 517.318 16.91 518.727L15.3977 519.998L14.4035 519.771C12.1298 519.248 9.16825 520.317 6.47463 522.65C5.62453 523.375 3.92346 525.082 2.69191 526.475L0.434905 528.998L-0.770028 529.087C-1.44393 529.146 -3.05008 529.136 -4.37048 529.063C-6.56075 528.948 -6.90887 528.982 -8.67353 529.68C-10.38 530.33 -10.769 530.587 -12.2728 532.01C-14.7435 534.385 -16.7817 535.502 -19.6792 536.079C-22.2151 536.592 -23.2608 537.083 -25.2202 538.661C-27.0767 540.171 -27.8939 540.391 -30.5701 540.157C-34.6826 539.82 -35.1736 539.885 -39.4405 541.703C-46.9332 544.901 -49.1488 545.701 -50.1523 545.581C-50.9105 545.493 -52.0804 545.801 -56.3549 547.208C-63.0502 549.418 -66.9356 550.568 -69.2169 551.006L-71.0161 551.356L-71.8498 552.513C-74.4807 556.115 -75.206 556.893 -76.4346 557.38C-76.725 557.495 -76.8999 557.771 -76.8919 558.052C-76.8485 558.423 -77.1575 558.752 -78.0248 559.302C-79.8177 560.451 -80.1895 560.883 -80.4614 562.154C-81.0006 564.643 -81.374 565.593 -82.5352 567.294L-83.7145 569.079L-83.6194 571.343C-83.5878 572.598 -83.7688 574.687 -84.0095 575.972C-84.4222 577.997 -84.4374 578.546 -84.0632 580.079C-83.8037 581.192 -83.7131 582.138 -83.8577 582.687C-83.9841 583.151 -83.9387 584.245 -83.7499 585.179L-83.3762 586.841L-82.1561 586.203C-80.7572 585.494 -79.9467 584.604 -78.5916 582.284C-77.7525 580.814 -77.4928 580.556 -76.577 580.193C-75.9069 579.928 -75.3434 579.524 -75.034 579.065C-74.7516 578.669 -74.2505 578.238 -73.9154 578.105C-73.357 577.884 -73.2714 577.644 -73.1984 575.804C-73.0423 573.131 -72.9163 572.796 -71.7324 572.328C-71.1516 572.098 -70.53 571.645 -70.2118 571.209C-69.907 570.804 -69.3836 570.364 -69.0708 570.24C-68.3114 569.939 -68.085 568.945 -67.7135 564.531C-67.5642 562.558 -67.2088 560.322 -66.9521 559.6L-66.4614 558.294L-65.5026 558.432C-64.0668 558.665 -58.9925 558.234 -57.8756 557.792C-57.1385 557.5 -56.6833 557.475 -56.0996 557.71C-55.5783 557.917 -54.8778 557.924 -54.083 557.713C-52.2968 557.265 -51.0831 557.198 -50.4728 557.5C-50.1609 557.635 -49.6434 557.637 -49.3083 557.504C-48.9063 557.345 -48.5316 557.378 -48.269 557.584C-47.8287 557.979 -42.8623 557.798 -41.7231 557.347C-41.254 557.161 -40.8346 557.176 -40.4874 557.401C-39.6727 557.958 -37.5743 557.515 -33.6429 555.959C-29.5775 554.35 -28.2693 554.065 -25.6016 554.147C-23.6966 554.194 -23.5537 554.164 -20.3818 552.908C-17.3216 551.697 -17.067 551.622 -16.5103 551.919C-16.1584 552.09 -15.1069 552.527 -14.1355 552.893L-12.3933 553.574L-9.39584 552.465C-7.71169 551.824 -5.69755 551.234 -4.72441 551.081C-2.99687 550.811 3.8273 550.102 3.96089 550.178C4.00093 550.214 4.71316 550.708 5.56783 551.3C6.4225 551.893 9.13866 553.533 11.6369 554.95C14.1264 556.343 17.1767 558.11 18.388 558.82L20.6456 560.151L20.6203 561.066C20.6042 561.874 20.7104 562.142 21.5718 563.405C22.1091 564.175 22.6548 565.096 22.7964 565.454C23.0884 566.192 22.9016 568.723 22.5256 569.078C22.1632 569.403 22.5584 571.315 23.756 574.798C24.5469 577.123 24.8376 578.249 24.8081 579.088C24.749 580.766 25.1481 581.514 26.5902 582.546C27.2801 583.049 27.9384 583.668 28.0446 583.936C28.1508 584.204 27.9834 584.891 27.6555 585.564C26.8471 587.177 27.3169 588.103 29.3753 588.995C30.5603 589.509 30.5869 589.576 30.7819 591.309C30.8123 591.581 30.4355 592.196 29.9474 592.725C28.7609 593.971 28.4195 594.675 28.6938 595.368C28.8177 595.681 28.7895 596.132 28.6504 596.368C28.3768 596.786 28.4034 596.853 29.2753 597.62C30.8321 599.073 30.7507 599.39 28.6021 600.162C26.1096 601.045 25.5904 601.561 24.3444 604.615C23.7193 606.103 23.0272 607.619 22.7495 607.961C22.1442 608.847 22.5471 609.8 23.9981 610.855C24.6167 611.308 25.2927 611.972 25.5101 612.325C25.8785 612.929 25.8692 613.036 25.2433 613.413C24.899 613.653 24.1066 614.458 23.4794 615.224C22.3684 616.594 22.3684 616.594 22.7578 617.578C22.979 618.137 23.6449 619.166 24.2538 619.856L25.3204 621.115L24.9036 621.694C24.1057 622.811 23.5105 624.702 23.5328 626.064C23.5766 627.676 24.4339 634.215 24.6993 634.886C24.8055 635.154 25.2194 635.482 25.6071 635.613C26.0884 635.784 26.6931 636.398 27.5326 637.54C30.1441 641.136 29.984 640.992 31.6205 641.275C33.3863 641.559 33.9603 642.03 34.6906 643.81C35.0534 644.727 35.3421 645.129 35.7387 645.283C36.563 645.603 42.9855 646.294 44.3733 646.21C45.8147 646.131 48.2178 645.283 49.0144 644.554C49.811 643.825 49.8957 643.843 50.6741 644.569C51.688 645.564 53.1789 649.396 53.4216 651.576C53.5168 652.469 53.7363 653.546 53.9356 653.985C54.2234 654.646 54.1686 655.03 53.6919 656.176C53.1659 657.392 53.1195 657.928 53.3339 660.559C53.44 662.197 53.5098 664.006 53.4588 664.595C53.3989 665.162 53.4026 666.738 53.4696 668.082C53.5365 669.426 53.5638 671.975 53.5266 673.774C53.4936 675.649 53.6212 677.538 53.8197 678.236C54.1151 679.308 54.0919 679.576 53.6304 680.173C52.8729 681.196 52.5484 682.204 52.7017 683.049C52.8155 683.728 52.7169 683.87 51.9346 684.309C51.1971 684.73 50.937 685.118 50.1947 686.963C49.3311 689.089 49.0175 689.472 47.794 689.775C47.5841 689.832 47.6541 690.27 48.0611 691.299C48.3709 692.081 48.7897 693.596 48.9915 694.629C49.4301 696.912 49.7044 697.605 50.5667 698.608C51.1268 699.24 51.2064 699.441 51.0534 699.838C50.9678 700.079 50.736 701.386 50.5306 702.76C50.1697 705.308 49.5299 707.216 48.7729 708.111C48.5221 708.391 47.793 708.964 47.1401 709.403C46.5008 709.812 45.1495 710.967 44.1469 711.959C42.5802 713.484 42.1196 713.822 40.5871 714.454L38.8537 715.166L38.5501 717.924C38.3844 719.463 38.3527 720.95 38.4677 721.241C38.6447 721.688 38.4875 722.009 37.677 722.898C36.056 724.678 35.4199 726.792 34.9611 731.964C34.5301 736.815 34.082 738.751 33.0464 740.247C32.6789 740.755 32.4808 741.299 32.6009 741.406C32.7075 741.545 33.0581 742.105 33.3864 742.673L33.9764 743.707L33.1301 743.266C32.3374 742.83 32.3151 742.838 32.4874 743.339C32.5936 743.607 32.9889 744.149 33.3446 744.526C34.1761 745.386 34.0951 745.573 33.0074 745.306C31.8796 745.002 31.8648 745.422 32.95 746.466C33.9728 747.484 33.9585 747.774 32.9782 747.386C31.9667 746.985 31.8681 747.127 32.6195 747.916C33.4733 748.767 33.4809 749.178 32.6907 749.336C31.9675 749.467 32.0024 749.686 32.9228 750.64C33.7454 751.479 33.7589 751.447 32.9603 751.453C32.581 751.474 32.264 751.522 32.2506 751.553C32.2459 751.607 32.2358 751.973 32.2299 752.415C32.2374 752.825 31.9807 753.548 31.6848 753.975C31.3173 754.483 31.1504 755.04 31.238 755.523C31.4087 756.541 30.3064 759.305 29.0786 760.903C27.9807 762.372 27.7775 763.099 28.3152 763.739C28.6086 764.089 28.5816 764.151 28.2562 764.047C27.659 763.844 25.717 764.225 24.9436 764.686C24.4787 764.947 24.268 765.264 24.2755 765.674C24.2789 766.009 23.9552 766.758 23.583 767.319C22.0045 769.728 22.0901 769.487 22.6692 769.775C23.0834 769.974 23.1365 770.108 22.9886 770.321C22.8453 770.482 22.6712 770.499 22.5246 770.324C22.418 770.185 21.9148 769.893 21.447 769.69C20.752 769.371 20.395 769.383 19.5239 769.727C18.6304 770.081 17.9278 770.721 15.3977 773.533C12.7512 776.442 10.4529 779.317 10.0529 780.2C9.97661 780.333 10.216 780.808 10.567 781.237C11.149 781.99 11.1798 782.133 10.9609 783.538C10.7004 785.426 10.9035 786.069 11.7076 785.751C12.3331 785.504 14.0176 786.104 14.2388 786.663C14.3185 786.864 14.1735 787.542 13.9437 788.202C13.4126 789.602 13.4788 789.834 14.2248 789.565C15.9443 789.014 17.1315 790.251 16.9371 792.37C16.8072 793.87 17.0001 796.25 17.3098 797.033C17.4248 797.324 17.3654 797.761 17.1816 798.015C16.7918 798.531 16.9683 799.108 17.6531 799.793C18.0312 800.161 18.1108 800.362 18.0025 800.741C17.8946 800.991 17.959 801.741 18.1309 802.371C18.4217 803.498 18.4305 803.52 19.0113 803.29C20.3069 802.777 21.7516 803.033 22.0702 803.838C22.1144 803.95 21.8628 804.489 21.5041 805.019C20.7956 806.101 20.8208 806.556 21.6325 806.649C22.0161 806.704 22.4181 806.545 22.9951 806.11C24.0104 805.346 24.4116 805.445 25.1436 806.707C25.6316 807.549 25.662 807.821 25.4267 808.793C25.1957 809.842 25.2088 809.94 25.6766 810.143C26.0909 810.341 26.2472 810.279 26.7307 809.803C27.6124 808.963 28.384 809.019 30.2232 810.076C32.8239 811.555 35.0411 811.608 35.5499 810.217C35.6759 809.883 36.0342 809.483 36.3292 809.314C36.7359 809.101 36.8485 808.798 36.8422 807.999C36.7652 805.65 36.3801 803.372 35.66 801.226C35.108 799.505 34.9765 798.781 35.1342 798.331C35.5485 797.158 35.5499 795.399 35.1412 792.148C34.658 788.511 34.6379 786.502 35.0556 785.665C35.2891 785.21 35.4366 785.126 36.0077 785.133C36.36 785.174 37.1637 784.985 37.7445 784.755C39.0177 784.252 40.6834 782.454 40.7804 781.459C40.8867 780.357 39.735 777.839 38.4505 776.356C37.2148 774.931 37.0998 774.641 37.8976 774.894C38.3388 775.029 38.397 774.981 38.4788 774.534C38.5243 774.258 38.7364 773.553 38.9791 772.992C39.5456 771.681 39.4146 770.828 38.5873 770.044C37.7866 769.326 37.809 769.317 39.2318 769.452C39.8429 769.495 40.4409 769.439 40.5707 769.31C40.7094 769.204 41.4479 767.153 42.2231 764.803C43.9357 759.6 44.3804 758.7 45.5516 758.003C46.1998 757.617 46.6255 757.061 47.1153 756.014C47.9735 754.2 48.078 753.616 47.5213 753.319C46.9958 753.035 47.5542 752.814 48.312 753.032C49.3862 753.33 49.7892 752.912 50.4834 750.75C51.1507 748.65 51.9001 747.344 52.6372 747.053C53.151 746.849 53.1261 746.264 52.6057 745.798C52.0228 745.305 52.3453 744.944 53.2147 745.117C54.1689 745.309 54.2405 745.229 53.7656 744.486C53.3661 743.868 53.3884 743.859 53.9009 744.044C54.4222 744.251 54.5297 744.131 55.7592 742.016L57.0426 739.775L58.7765 738.933L60.5192 738.114L60.0856 737.019C59.6566 735.87 59.6297 735.932 61.1382 733.085C61.3717 732.631 61.6697 731.556 61.8198 730.695C62.0744 729.249 62.3349 728.732 63.1581 728.071C63.3684 727.884 63.3659 727.29 63.1775 726.227C62.7958 724.283 62.9473 721.663 63.4961 720.308C64.2788 718.369 66.4401 716.453 67.3175 716.908C68.1237 717.313 68.3231 717.751 68.2037 718.755C68.1574 719.291 68.1333 719.817 68.1687 719.907C68.3014 720.242 70.0281 720.231 70.163 719.919C70.3788 719.42 71.4586 719.406 72.403 719.834L73.2851 720.235L73.1257 721.203L72.9664 722.171L73.8455 722.108C74.4836 722.088 74.9974 721.885 75.8559 721.312C76.9782 720.557 77.0318 720.562 77.7044 720.891C78.074 721.106 79.2553 721.415 80.3165 721.615L82.2248 721.998L82.785 721.259C84.4743 719.065 85.6498 717.074 85.4054 716.782C80.2307 711.15 75.5265 702.202 76.343 699.5C76.456 699.067 76.4492 698.398 76.2988 698.018C76.0422 697.369 76.1412 697.097 77.5444 695.094C79.5885 692.164 80.9441 689.714 82.4138 686.443C83.8208 683.274 84.3532 681.486 84.9894 678.001C85.2393 676.609 85.7861 674.531 86.1869 673.39C86.6013 672.217 86.8686 670.999 86.8252 670.629C86.7594 670.267 86.8501 669.843 87.0469 669.687C87.4764 669.336 88.0077 663.825 88.0223 659.423L88.0595 656.253L89.079 655.565C90.3847 654.686 92.4087 652.489 93.4628 650.778C93.9159 650.03 95.0202 647.99 95.9049 646.243C96.7585 644.483 97.8223 642.536 98.2438 641.904C99.6431 639.695 101.765 637.614 103.776 636.43C104.344 636.102 104.702 635.701 104.78 635.309C104.852 634.97 105.708 632.562 106.698 629.972C108.566 625.095 109.046 622.784 108.489 621.376C108.321 620.951 108.322 620.433 108.493 620.081C109.054 618.954 108.006 617.61 104.819 615.432C103.608 614.593 102.268 613.494 101.806 612.978C101.091 612.15 100.77 611.992 99.5123 611.817C97.4341 611.528 95.7897 610.963 94.3471 610.06L93.1093 609.283L92.1536 606.869C90.9766 603.895 90.0664 602.574 86.9225 599.397C83.7922 596.188 83.2679 595.516 82.458 593.535C81.2364 590.579 81.2587 590.57 83.2469 587.042C84.2386 585.305 85.3198 583.532 85.6692 583.109C86.0321 582.655 86.2209 582.218 86.1231 582.102C85.8564 581.82 86.0934 578.959 86.4297 578.438C86.5823 578.171 86.4736 577.308 86.0859 575.807C85.6452 574.171 85.4935 572.809 85.4739 570.67C85.4445 567.397 85.1184 566.182 84.0058 565.329L83.2847 564.813L84.0506 562.57C84.8481 560.212 85.2566 559.481 86.4881 558.088C87.039 557.457 87.1874 557.113 87.0281 556.711C86.913 556.42 86.9055 556.01 87.0311 555.805C87.1702 555.569 87.0303 554.693 86.6683 553.517C85.9448 551.037 85.7321 549.259 85.9787 547.532C86.1798 546.082 85.6861 541.571 85.1817 540.296C84.9959 539.827 85.0065 539.331 85.2311 538.855C85.7209 537.807 85.5064 536.547 84.2558 532.931C83.2347 530.025 83.1867 529.707 83.5091 529.347C83.9121 528.929 83.9981 528.559 83.9661 527.434C83.9202 526.469 84.9811 525.429 87.5962 523.876C88.8838 523.082 90.2123 522.065 91.054 521.189C93.7624 518.436 96.2073 517.106 98.9741 516.916C100.982 516.768 101.764 516.458 102.838 515.387C103.322 514.911 103.912 514.444 104.158 514.347C104.426 514.241 105.68 514.21 106.978 514.291L109.351 514.412L111.572 513.43C113.525 512.553 114.016 512.229 115.489 510.793C116.442 509.873 117.735 508.896 118.459 508.506C119.17 508.147 119.872 507.636 120.002 507.378C120.123 507.097 120.579 506.813 121.022 506.69C121.665 506.487 121.759 506.398 121.649 505.924C121.539 505.451 121.655 505.353 122.365 505.123C122.986 504.929 123.161 504.783 123.027 504.577C122.743 504.12 123.053 503.532 123.885 503.022C125.275 502.162 125.32 502.014 124.567 500.502C123.472 498.324 123.334 498.171 121.124 497.288C119.271 496.521 118.954 496.31 118.298 495.303C117.876 494.694 116.992 493.57 116.32 492.853C115.098 491.527 115.098 491.527 113.202 491.372C111.222 491.199 109.245 491.232 101.78 491.497C89.607 491.944 84.9897 490.462 79.6962 484.333C78.9494 483.491 78.2068 482.725 78.0332 482.613C77.8596 482.5 76.3929 482.124 74.7746 481.756C73.1562 481.388 70.9989 480.768 69.9651 480.375C68.3075 479.712 68.0087 479.676 67.2981 480.034C66.8379 480.242 65.8513 480.426 65.0838 480.445C64.3075 480.442 63.4684 480.542 63.2227 480.639C62.8876 480.772 62.6158 480.672 62.3672 480.305C62.0962 479.947 61.6149 479.775 60.6692 479.736C58.8894 479.613 58.2121 479.338 57.9024 478.555C57.6723 477.974 57.5788 477.933 57.2075 478.236C56.1428 479.071 54.647 480.775 54.3861 481.421C54.0442 482.255 54.0922 483.942 54.4479 484.319C54.5857 484.471 55.2946 484.63 56.0262 484.651L57.3689 484.714L59.0529 486.815C60.4837 488.602 60.9553 489.01 62.1669 489.591C63.8552 490.397 64.8911 491.512 64.7051 492.413C64.6596 492.69 64.392 492.667 63.63 492.373C61.6471 491.607 58.863 491.622 56.875 492.409C55.1415 493.121 54.9354 493.384 55.3965 494.288C55.7644 495.021 55.8891 495.075 57.0447 495.057C57.7275 495.02 58.6816 495.211 59.1583 495.436C60.1116 495.887 61.1197 495.953 61.9685 495.617C62.3482 495.467 62.7583 495.589 63.3681 496.02C64.5743 496.913 66.7577 497.73 69.7627 498.402C71.1804 498.721 72.7271 499.169 73.2037 499.394L74.0546 499.781L73.1502 500.76L72.2233 501.747L70.9135 501.179C69.5813 500.621 69.5813 500.621 67.8837 501.293L66.186 501.964L65.0772 501.317L63.9773 500.692L59.9873 502.427C55.6399 504.303 54.738 504.504 53.6651 503.817C53.0506 503.44 52.9887 503.283 51.5417 498.322C50.5489 494.965 50.0386 492.762 50.0105 491.842C49.9271 490.065 49.7767 489.685 49.0324 489.436C48.5823 489.278 48.3202 488.942 47.9662 488.048C47.5591 487.02 47.4302 486.89 47.0504 487.04C46.5367 487.243 46.1367 486.755 45.6066 485.155C45.2266 484.064 45.1865 484.028 44.4368 484.092C43.9816 484.117 43.3085 483.918 42.8323 483.563C41.163 482.414 39.0828 481.401 38.4936 481.479C38.1767 481.527 37.869 481.468 37.8248 481.356C37.6389 480.886 36.2022 480.912 34.1527 481.413C32.9515 481.707 31.5409 481.929 31.0234 481.927C30.14 481.915 30.0283 481.959 29.3253 482.729L28.573 483.57L27.4043 483.489C25.9368 483.372 25.6911 483.469 25.412 484.2Z" fill="black"/>
<path d="M17.0485 734.425L16.7601 735.263L17.1733 734.479C17.5282 733.744 17.6138 733.503 17.4351 733.574C17.3904 733.591 17.2285 733.966 17.0485 734.425Z" fill="black"/>
<path d="M114.761 724.041C104.982 729.231 100.701 740.804 104.789 751.133C105.276 752.363 106.051 753.996 106.495 754.725C110.689 761.47 118.479 765.42 126.539 764.894C128.524 764.755 129.426 764.553 131.883 763.71C136.698 762.037 139.986 759.572 142.747 755.582C149.346 746.014 147.279 733.152 137.942 725.883C136.033 724.389 131.088 722.208 128.831 721.86C123.873 721.081 118.855 721.852 114.761 724.041Z" fill="black"/>
</g>
</g>
<defs>
<clipPath id="clip0_327_1016">
<rect width="375" height="812" fill="white"/>
</clipPath>
<clipPath id="clip1_327_1016">
<rect width="359.553" height="286.835" fill="white" transform="translate(167.344 72.1055) rotate(17.097)"/>
</clipPath>
<clipPath id="clip2_327_1016">
<rect width="261.931" height="311.3" fill="white" transform="matrix(-0.84715 -0.531354 -0.531354 0.84715 250.305 59.1782)"/>
</clipPath>
<clipPath id="clip3_327_1016">
<rect width="343.575" height="177.365" fill="white" transform="translate(94.2639 731.886) rotate(-21.5938)"/>
</clipPath>
<clipPath id="clip4_327_1016">
<rect width="225.34" height="307.781" fill="white" transform="translate(-104 534.93) rotate(-21.5938)"/>
</clipPath>
</defs>
</svg>
